<?xml version="1.0" encoding="UTF-8" standalone="no"?>
<!DOCTYPE svg PUBLIC "-//W3C//DTD SVG 1.1//EN" "http://www.w3.org/Graphics/SVG/1.1/DTD/svg11.dtd">
<svg width="100%" height="100%" viewBox="0 0 10417 14592" version="1.1" xmlns="http://www.w3.org/2000/svg" xmlns:xlink="http://www.w3.org/1999/xlink" xml:space="preserve" xmlns:serif="http://www.serif.com/" style="fill-rule:evenodd;clip-rule:evenodd;stroke-linejoin:round;stroke-miterlimit:2;">
    <g transform="matrix(4.16667,0,0,4.16667,0,0)">
        <path d="M1424.43,773.599C1600.13,829.401 1725.63,901.195 1857.55,1031.22C1845.21,1042.41 1833.55,1054.21 1823.67,1067.68C1802.89,1032.89 1772.84,986.879 1731.24,976.314C1715.3,972.264 1699.94,975.828 1686.1,984.334C1657.36,1002 1629.22,1042.19 1616.61,1073.46C1608.92,1061.41 1601.02,1050.32 1586.24,1046.69C1577.52,1044.55 1567.09,1045.65 1558.56,1048.38C1551.11,1015.31 1544.5,981.329 1533.42,949.28C1519.95,925.722 1504.22,903.304 1489.78,880.322C1467.58,844.998 1446.26,809.15 1424.43,773.599Z" style="fill:url(#_Linear1);"/>
        <path d="M1616.61,1073.46C1629.22,1042.19 1657.36,1002 1686.1,984.334C1699.94,975.828 1715.3,972.264 1731.24,976.314C1772.84,986.879 1802.89,1032.89 1823.67,1067.68C1833.55,1054.21 1845.21,1042.41 1857.55,1031.22C1901.14,1074.3 1979.01,1169.26 2005,1223.93C1868.82,1220.8 1732.75,1213.44 1596.54,1211.61C1585.28,1156.87 1572.62,1102.46 1558.56,1048.38C1567.09,1045.65 1577.52,1044.55 1586.24,1046.69C1601.02,1050.32 1608.92,1061.41 1616.61,1073.46Z" style="fill:rgb(90,200,224);fill-rule:nonzero;"/>
        <path d="M1596.54,1211.61C1732.75,1213.44 1868.82,1220.8 2005,1223.93C2083.93,1354.31 2132.74,1518.08 2133.65,1670.81C2133.66,1699.12 2133.19,1727.27 2130.81,1755.5C2106.8,1747.18 2084.39,1732.98 2060.11,1726.05C2046.91,1722.28 2031.7,1725.86 2018.08,1724.68C1997.3,1722.88 1976.22,1709.09 1957.17,1700.97C1951.46,1666.13 1948.66,1617.3 1930.03,1586.96C1921.56,1573.17 1909.37,1561.61 1900.43,1548.01C1893.92,1538.11 1889.94,1526.28 1885.65,1515.28L1877.82,1498.06C1870.14,1471.24 1840.16,1414.41 1825.48,1388.44C1819.92,1374.94 1816.44,1360.41 1809.65,1347.48L1804.47,1318.69C1783.43,1356.66 1763.17,1395.33 1741.38,1432.87C1737.27,1437.21 1733.76,1441.31 1730.49,1446.36C1720.48,1459.36 1710.14,1472.64 1698.45,1484.19C1687.83,1480.11 1677.31,1475.92 1666.29,1473.01L1661,1458.78C1658.42,1446.67 1653.79,1434.5 1650.13,1422.65C1641.62,1388.51 1628.75,1355.25 1619.8,1321.15C1610.36,1285.18 1604.72,1247.93 1596.54,1211.61Z" style="fill:url(#_Linear2);"/>
        <path d="M1650.13,1422.65C1678.38,1423.39 1704.36,1436.86 1730.49,1446.36C1720.48,1459.36 1710.14,1472.64 1698.45,1484.19C1687.83,1480.11 1677.31,1475.92 1666.29,1473.01L1661,1458.78C1658.42,1446.67 1653.79,1434.5 1650.13,1422.65Z" style="fill:rgb(150,212,203);fill-rule:nonzero;"/>
        <path d="M1885.65,1515.28C1897.16,1514.29 1906.43,1518.5 1915.14,1525.66C1931.88,1539.45 1941.21,1560.26 1957.78,1574.39C1980.81,1594.02 2007.48,1598.43 2032.78,1612.49C2042.98,1618.17 2047.31,1629.51 2055.58,1637.25C2071.21,1651.88 2094.88,1656.14 2114.43,1663.23C2120.87,1665.56 2127.04,1669.07 2133.65,1670.81C2133.66,1699.12 2133.19,1727.27 2130.81,1755.5C2106.8,1747.18 2084.39,1732.98 2060.11,1726.05C2046.91,1722.28 2031.7,1725.86 2018.08,1724.68C1997.3,1722.88 1976.22,1709.09 1957.17,1700.97C1951.46,1666.13 1948.66,1617.3 1930.03,1586.96C1921.56,1573.17 1909.37,1561.61 1900.43,1548.01C1893.92,1538.11 1889.94,1526.28 1885.65,1515.28Z" style="fill:rgb(150,212,203);fill-rule:nonzero;"/>
        <path d="M1905.59,2802.87C1918.18,2814.41 2044.44,2850.36 2067.65,2857.61L2157.55,2885.66C2174.97,2891.1 2193.43,2895.69 2210.09,2903.13C2232.45,2913.14 2253.16,2927.2 2273.93,2940.09C2300.65,2956.6 2327.28,2973.25 2353.83,2990.02C2364.04,2996.54 2400.29,3014.99 2405.32,3023.53C2404.69,3023.85 2404.07,3024.17 2403.43,3024.46C2393.42,3028.83 2108.15,3026.32 2072.76,3026.32L1421.68,3026.12L1205.61,3026.07C1168.85,3026.05 1131.54,3027.46 1094.86,3025.8C1091.26,3025.63 1088.6,3025.02 1085.31,3023.56L1084.79,3022.09C1095.67,3008.28 1140.19,2995.51 1153.84,2979.53C1155.32,2979.94 1156.48,2980.07 1157.98,2979.63C1174,2975.18 1215.92,2949.6 1234.27,2940.35C1272.39,2921.12 1311.96,2904.28 1349.64,2884.27C1353.31,2882.31 1355.25,2881.12 1357.39,2877.46C1362.73,2879.29 1363.98,2879.46 1369.52,2878.46C1385.8,2883.73 1421.21,2881.24 1439.38,2881.66L1641.53,2884.58C1660.35,2884.88 1701.5,2888.64 1716.44,2885.78C1717.75,2886.12 1718.5,2886.41 1719.97,2886.29C1729.14,2885.63 1859.06,2824.59 1875.84,2815.73C1878.58,2814.29 1880.46,2812.61 1882.32,2810.17C1889.1,2811.8 1894.77,2809.8 1900.62,2806.26C1902.36,2805.21 1903.96,2804.09 1905.59,2802.87Z" style="fill:rgb(14,32,25);fill-rule:nonzero;"/>
        <path d="M1369.52,2878.46C1385.8,2883.73 1421.21,2881.24 1439.38,2881.66L1641.53,2884.58C1660.35,2884.88 1701.5,2888.64 1716.44,2885.78C1715.54,2887.39 1715,2888.54 1713.47,2889.66C1704.61,2896.03 1602.65,2937.89 1595.48,2937.38C1593.85,2937.77 1592.49,2938.11 1590.79,2937.99C1569.92,2936.45 1545.86,2926.88 1525.39,2921.73C1491.04,2913.38 1456.78,2904.7 1422.61,2895.67C1407.22,2891.69 1389.99,2888.66 1375.18,2883.12C1372.55,2882.12 1371.24,2880.58 1369.52,2878.46Z" style="fill:rgb(97,61,38);fill-rule:nonzero;"/>
        <path d="M1804.47,1318.69L1809.65,1347.48C1816.44,1360.41 1819.92,1374.94 1825.48,1388.44C1840.16,1414.41 1870.14,1471.24 1877.82,1498.06L1885.65,1515.28C1889.94,1526.28 1893.92,1538.11 1900.43,1548.01C1909.37,1561.61 1921.56,1573.17 1930.03,1586.96C1948.66,1617.3 1951.46,1666.13 1957.17,1700.97C1976.22,1709.09 1997.3,1722.88 2018.08,1724.68C2031.7,1725.86 2046.91,1722.28 2060.11,1726.05C2084.39,1732.98 2106.8,1747.18 2130.81,1755.5C2125.06,1813.11 2116.04,1868.77 2099.83,1924.49C2093.6,1945.9 2082.76,1966.8 2077.61,1988.24C2091.9,2008.99 2110.69,2030.11 2121.85,2052.49C2130.67,2070.19 2135.5,2090.99 2141.37,2109.9C2152.02,2144.65 2163.03,2179.28 2174.41,2213.8C2180.31,2232.14 2185.42,2251.97 2193.26,2269.56C2200.04,2284.74 2386.81,2577.96 2389.34,2579.57C2389.06,2591.09 2389.74,2603.49 2388.24,2614.83C2387.18,2614.98 2387.78,2615 2386.3,2614.47C2385.88,2614.32 2385.46,2614.17 2385.04,2614L2385.04,2615.42C2370.08,2605.27 2356.41,2591.92 2342.69,2580.1L2270.57,2517.79L2200.03,2456.58C2186.82,2445.08 2171.95,2433.81 2160.38,2420.69C2140.07,2408.2 2110.4,2381.03 2093.74,2364.21C2061.47,2339.28 2031.45,2310.69 2001.12,2283.46C1977.67,2262.41 1952.56,2241.99 1930.91,2219.12C1921.51,2187.91 1911.82,2156.79 1901.83,2125.76C1895.13,2104.39 1889.75,2080.93 1879.13,2061.17C1866.09,2036.91 1846.77,2014.02 1831.57,1990.89C1804.29,1949.39 1778.89,1906.68 1751.85,1865.07C1738.47,1844.48 1719.88,1821.69 1710.64,1799.05C1703.21,1780.84 1701.34,1758.28 1697.81,1738.93C1693.63,1716.83 1689.26,1694.76 1684.68,1672.74C1678.41,1641.63 1649.91,1475.46 1661,1458.78L1666.29,1473.01C1677.31,1475.92 1687.83,1480.11 1698.45,1484.19C1710.14,1472.64 1720.48,1459.36 1730.49,1446.36C1733.76,1441.31 1737.27,1437.21 1741.38,1432.87C1763.17,1395.33 1783.43,1356.66 1804.47,1318.69Z" style="fill:rgb(34,48,67);fill-rule:nonzero;"/>
        <path d="M1825.48,1388.44C1840.16,1414.41 1870.14,1471.24 1877.82,1498.06C1877.59,1498.35 1877.33,1498.62 1877.15,1498.93C1875.97,1501.03 1875.77,1503.63 1876.16,1505.97C1879.92,1528.69 1888.16,1551.87 1893.63,1574.43C1902.38,1610.56 1909.83,1647.11 1917.78,1683.43C1924,1711.83 1931.18,1740.35 1935.4,1769.12C1890.25,1679 1865.05,1579.52 1843.94,1481.6C1837.31,1450.82 1829.55,1419.65 1825.48,1388.44Z" style="fill:rgb(52,71,90);fill-rule:nonzero;"/>
        <path d="M1827.82,1480.75C1840.1,1580.99 1857.86,1681.06 1872.72,1780.99C1877.52,1813.22 1884.02,1845.45 1887.22,1877.88C1870.44,1858.85 1856.67,1834.09 1842.23,1812.94C1823.57,1785.63 1802.7,1758.75 1785.81,1730.4C1790.7,1700.52 1795.21,1670.12 1803.64,1641C1811.38,1664.27 1812.7,1689.48 1820.52,1712.75C1821.4,1679.95 1811.7,1647.19 1812.6,1614.21C1813.83,1569.48 1825.82,1525.36 1827.82,1480.75Z" style="fill:rgb(79,110,120);fill-rule:nonzero;"/>
        <path d="M1957.17,1700.97C1976.22,1709.09 1997.3,1722.88 2018.08,1724.68C2031.7,1725.86 2046.91,1722.28 2060.11,1726.05C2084.39,1732.98 2106.8,1747.18 2130.81,1755.5C2125.06,1813.11 2116.04,1868.77 2099.83,1924.49C2093.6,1945.9 2082.76,1966.8 2077.61,1988.24C2014.49,1905.17 1975.22,1803.09 1957.17,1700.97Z" style="fill:rgb(52,188,170);fill-rule:nonzero;"/>
        <path d="M1804.47,1318.69L1809.65,1347.48C1811.2,1363.64 1813.08,1379.85 1814.26,1396.04C1820.8,1418.79 1823.03,1455.61 1827.82,1480.75C1825.82,1525.36 1813.83,1569.48 1812.6,1614.21C1811.7,1647.19 1821.4,1679.95 1820.52,1712.75C1812.7,1689.48 1811.38,1664.27 1803.64,1641C1795.21,1670.12 1790.7,1700.52 1785.81,1730.4C1765.98,1701.27 1745.45,1670.46 1730.17,1638.7C1723.93,1624.94 1717.45,1611.27 1712.34,1597.05L1709.77,1590.8C1693,1552.85 1679.76,1512.28 1666.29,1473.01C1677.31,1475.92 1687.83,1480.11 1698.45,1484.19C1710.14,1472.64 1720.48,1459.36 1730.49,1446.36C1733.76,1441.31 1737.27,1437.21 1741.38,1432.87C1763.17,1395.33 1783.43,1356.66 1804.47,1318.69Z" style="fill:rgb(215,238,236);fill-rule:nonzero;"/>
        <path d="M1730.49,1446.36C1733.76,1441.31 1737.27,1437.21 1741.38,1432.87C1713.65,1497.19 1710.83,1521.62 1709.77,1590.8C1693,1552.85 1679.76,1512.28 1666.29,1473.01C1677.31,1475.92 1687.83,1480.11 1698.45,1484.19C1710.14,1472.64 1720.48,1459.36 1730.49,1446.36Z" style="fill:rgb(163,190,158);fill-rule:nonzero;"/>
        <path d="M1814.26,1396.04C1820.8,1418.79 1823.03,1455.61 1827.82,1480.75C1825.82,1525.36 1813.83,1569.48 1812.6,1614.21C1811.7,1647.19 1821.4,1679.95 1820.52,1712.75C1812.7,1689.48 1811.38,1664.27 1803.64,1641C1795.21,1670.12 1790.7,1700.52 1785.81,1730.4C1765.98,1701.27 1745.45,1670.46 1730.17,1638.7C1723.93,1624.94 1717.45,1611.27 1712.34,1597.05C1720.67,1580.34 1724.49,1558.8 1729.31,1540.72C1730.5,1560.43 1735.33,1617.66 1732.29,1634.53L1735.7,1636.97C1738.87,1633.98 1739.24,1630.76 1740.11,1626.59C1742.5,1615.07 1743.33,1603.05 1745.35,1591.42C1750.86,1559.71 1757.88,1527 1767.63,1496.3C1769.5,1521.84 1768.08,1547.68 1767.56,1573.26C1766.7,1611.02 1766.46,1648.79 1766.87,1686.56C1776.29,1652.57 1783.23,1617.58 1790.26,1583.04C1802.89,1520.93 1814.59,1459.77 1814.26,1396.04Z" style="fill:rgb(163,190,158);fill-rule:nonzero;"/>
        <path d="M1661,1458.78L1666.29,1473.01C1679.76,1512.28 1693,1552.85 1709.77,1590.8L1712.34,1597.05C1717.45,1611.27 1723.93,1624.94 1730.17,1638.7C1745.45,1670.46 1765.98,1701.27 1785.81,1730.4C1802.7,1758.75 1823.57,1785.63 1842.23,1812.94C1856.67,1834.09 1870.44,1858.85 1887.22,1877.88L1886.87,1881.02C1907.19,1908.72 1926.97,1939.91 1950.32,1964.97C1971.24,1987.4 1993.31,2008.99 2014.88,2030.82C2027.44,2043.53 2041.19,2056.13 2051.71,2070.6C2057.81,2078.99 2153.38,2391.21 2160.38,2420.69C2140.07,2408.2 2110.4,2381.03 2093.74,2364.21C2061.47,2339.28 2031.45,2310.69 2001.12,2283.46C1977.67,2262.41 1952.56,2241.99 1930.91,2219.12C1921.51,2187.91 1911.82,2156.79 1901.83,2125.76C1895.13,2104.39 1889.75,2080.93 1879.13,2061.17C1866.09,2036.91 1846.77,2014.02 1831.57,1990.89C1804.29,1949.39 1778.89,1906.68 1751.85,1865.07C1738.47,1844.48 1719.88,1821.69 1710.64,1799.05C1703.21,1780.84 1701.34,1758.28 1697.81,1738.93C1693.63,1716.83 1689.26,1694.76 1684.68,1672.74C1678.41,1641.63 1649.91,1475.46 1661,1458.78Z" style="fill:rgb(34,48,67);fill-rule:nonzero;"/>
        <path d="M1771.84,1758.67C1809.63,1799.98 1849.87,1839.06 1886.87,1881.02C1907.19,1908.72 1926.97,1939.91 1950.32,1964.97C1971.24,1987.4 1993.31,2008.99 2014.88,2030.82C2027.44,2043.53 2041.19,2056.13 2051.71,2070.6C2057.81,2078.99 2153.38,2391.21 2160.38,2420.69C2140.07,2408.2 2110.4,2381.03 2093.74,2364.21C2080.95,2327.68 2061.1,2291.38 2044.75,2256.2C2023.15,2209.73 1995.91,2141.24 1968.4,2101.27C1947.76,2071.26 1924.39,2042.29 1901.64,2013.83C1890.79,2000.27 1877.66,1986.53 1868.83,1971.65C1853.51,1945.85 1843.56,1916.36 1831.58,1888.86C1812.24,1845.2 1792.32,1801.81 1771.84,1758.67Z" style="fill:rgb(52,71,90);fill-rule:nonzero;"/>
        <path d="M1161.21,764.136C1149.25,788.714 1121.25,854.934 1106.74,873.688C1089.27,896.277 1056.57,922.918 1035.29,943.127L995.327,1093.78C988.767,1119.09 984.234,1147.91 974.42,1171.96C961.313,1208.57 949.51,1247.49 933.164,1282.71C917.388,1320.81 897.535,1357.02 881.152,1394.84C888.353,1409.83 892.136,1425.95 898.45,1441.26C883.649,1435.5 856.65,1382 836.887,1369.91C807.352,1379.13 779.22,1418.88 765.245,1445.27C760.361,1454.49 756.465,1464.21 753.019,1474.05C751.837,1482.42 750.817,1490.87 747.566,1498.73C739.261,1518.83 670.21,1648.32 660.374,1655.53C660.273,1655.61 660.164,1655.67 660.059,1655.73C633.643,1654.26 370.334,1657.7 364.374,1660.19C365.938,1644.73 363.679,1628.32 367.435,1613.23C368.361,1602.98 369.453,1592.75 370.713,1582.53C371.974,1572.32 373.402,1562.13 374.996,1551.96C376.591,1541.79 378.352,1531.66 380.28,1521.55C382.207,1511.44 384.299,1501.36 386.558,1491.32C388.816,1481.28 391.238,1471.28 393.824,1461.32C396.41,1451.36 399.158,1441.44 402.069,1431.57C404.98,1421.7 408.052,1411.88 411.285,1402.1C414.518,1392.33 417.911,1382.62 421.463,1372.96C425.015,1363.3 428.724,1353.7 432.59,1344.16C436.456,1334.63 440.478,1325.15 444.655,1315.75C448.833,1306.34 453.164,1297.01 457.646,1287.74C462.129,1278.48 466.764,1269.29 471.549,1260.18C476.334,1251.06 481.267,1242.03 486.347,1233.08C491.429,1224.13 496.655,1215.27 502.026,1206.49C507.398,1197.71 512.912,1189.02 518.57,1180.42C524.226,1171.82 530.021,1163.32 535.958,1154.91C688.405,937.875 901.176,809.932 1161.21,764.136Z" style="fill:rgb(17,140,150);fill-rule:nonzero;"/>
        <path d="M911.93,1208.43C929.755,1187.64 949.351,1181.37 974.42,1171.96C961.313,1208.57 949.51,1247.49 933.164,1282.71C862.116,1282.97 791.072,1282.59 720.03,1281.58C673.446,1281.06 625.615,1282.04 579.375,1276.38C621.781,1270.55 665.931,1265.56 708.69,1263.51C726.62,1239.52 747.095,1237.02 775.308,1233.78C782.808,1232.92 789.984,1232.71 796.784,1229.17C804.057,1225.39 808.37,1224.77 816.368,1225.05C830.336,1211.22 846.372,1202.23 865.874,1198.7C883.315,1195.54 897.471,1198.25 911.93,1208.43Z" style="fill:rgb(90,200,224);fill-rule:nonzero;"/>
        <path d="M659.595,1497.48C660.269,1493.06 661.067,1488.69 662.216,1484.37C666.222,1469.32 675.606,1455.5 689.401,1447.84C699.479,1442.23 711.839,1440.22 722.964,1443.7C738.597,1448.58 746.214,1460.15 753.019,1474.05C751.837,1482.42 750.817,1490.87 747.566,1498.73C739.261,1518.83 670.21,1648.32 660.374,1655.53C660.273,1655.61 660.164,1655.67 660.059,1655.73C633.643,1654.26 370.334,1657.7 364.374,1660.19C365.938,1644.73 363.679,1628.32 367.435,1613.23C367.479,1618.63 367.806,1623.98 368.157,1629.37C380.146,1629.86 410.194,1603.2 424.409,1598.37C438.245,1593.67 456.487,1595.14 471.078,1595.4C474.627,1590.62 478.313,1586.1 482.52,1581.88C502.966,1561.4 525.116,1556.26 553.279,1556.25C556.135,1549.97 558.969,1543.5 563.63,1538.32C572.717,1528.23 584.376,1525.88 597.244,1524.85L598.379,1522.98C606.382,1509.94 617.253,1493.08 633.335,1489.78C644.041,1487.58 651.065,1491.91 659.595,1497.48Z" style="fill:rgb(150,212,203);fill-rule:nonzero;"/>
        <path d="M613.377,2468.39C652.997,2480.2 692.49,2492.42 731.858,2505.05C749.141,2510.47 767.061,2517.6 784.651,2521.57C787.05,2522.11 789.01,2521.92 791.309,2521.09C796.728,2526.65 810.85,2532.56 818.801,2532.73C820.625,2532.78 822.019,2532.17 823.659,2531.48C830.649,2539.42 861.521,2548.1 872.695,2549.4C874.313,2549.59 875.487,2549.18 877.018,2548.74C883.898,2554.96 895.189,2557.33 904.203,2558.65L908.776,2556.89C910.282,2558.65 912.064,2560.5 914.246,2561.38C926.32,2566.29 981.825,2583.76 993.289,2585.13C995.801,2585.45 997.414,2584.89 999.772,2584.18C1007.5,2591.84 1078.77,2613.79 1089.81,2614.74C1091.37,2614.86 1092.61,2614.52 1094.1,2614.13C1094.73,2615 1096.25,2617.74 1097.04,2618.2C1107.54,2624.52 1164.54,2637.7 1181.85,2642.63C1210.66,2650.69 1239.18,2659.62 1267.42,2669.43C1305.25,2682.56 1339.98,2699.77 1376.54,2715.64C1407.52,2729.09 1440.11,2740.85 1472.2,2751.39C1508.16,2763.21 1544.44,2771.09 1581.75,2777.19C1614.29,2782.51 1835.68,2812.24 1855.05,2806.82C1863.41,2809.48 1873.57,2811.24 1882.32,2810.17C1880.46,2812.61 1878.58,2814.29 1875.84,2815.73C1859.06,2824.59 1729.14,2885.63 1719.97,2886.29C1718.5,2886.41 1717.75,2886.12 1716.44,2885.78C1701.5,2888.64 1660.35,2884.88 1641.53,2884.58L1439.38,2881.66C1421.21,2881.24 1385.8,2883.73 1369.52,2878.46C1363.98,2879.46 1362.73,2879.29 1357.39,2877.46C1355.25,2881.12 1353.31,2882.31 1349.64,2884.27C1311.96,2904.28 1272.39,2921.12 1234.27,2940.35C1215.92,2949.6 1174,2975.18 1157.98,2979.63C1156.48,2980.07 1155.32,2979.94 1153.84,2979.53C1140.19,2995.51 1095.67,3008.28 1084.79,3022.09L1085.31,3023.56C1084.1,3024.17 1083.76,3024.39 1082.58,3024.8C1071.34,3028.61 852.791,3025.76 822.738,3025.76L341.485,3025.76C258.444,3025.8 175.165,3027.39 92.148,3025.95C87.091,3025.88 83.138,3025.68 78.455,3023.56C75.541,3025 72.933,3025.49 69.772,3026.02L68.356,3024.54C72.91,3007.06 80.141,2989.83 86.477,2972.91C106.831,2918.61 132.636,2863.72 147.72,2807.85C147.005,2808.6 146.291,2809.38 145.534,2810.09C137.104,2818.22 62.334,2842.48 50.189,2842.21C50.777,2842.09 51.369,2842.02 51.954,2841.9C59.981,2840.21 100.393,2805.21 104.512,2798.3C115.813,2796.08 136.443,2773.65 145.458,2765.67C148.376,2763.77 149.374,2760.06 150.708,2756.98C162.714,2756.69 244.896,2674.63 262.298,2662.6C281.812,2649.13 304.671,2638.92 325.574,2627.72C357.276,2610.55 388.828,2593.12 420.23,2575.42L549.53,2502.63C570.191,2491.06 591.423,2476.93 613.377,2468.39Z" style="fill:rgb(89,148,64);fill-rule:nonzero;"/>
        <path d="M751.986,2807.07C752.711,2806.97 753.439,2806.9 754.161,2806.77C768.308,2804.67 778.971,2792.71 794.409,2792.86C831.933,2793.25 901.159,2819.76 938.258,2831.57C1002.3,2852 1104.37,2879.63 1169.83,2883.39C1209.39,2885.66 1250.76,2881.39 1290.39,2879.53C1311.64,2878.53 1336.89,2881.53 1357.39,2877.46C1355.25,2881.12 1353.31,2882.31 1349.64,2884.27C1311.96,2904.28 1272.39,2921.12 1234.27,2940.35C1215.92,2949.6 1174,2975.18 1157.98,2979.63C1156.48,2980.07 1155.32,2979.94 1153.84,2979.53C1153.64,2979.58 1153.44,2979.63 1153.24,2979.63C1143.34,2980.6 900.703,2894.32 892.331,2887.66C888.582,2896.84 861.763,2931.2 853.941,2935.2C849.379,2933.35 757.737,2819.05 751.986,2807.07Z" style="fill:rgb(97,61,38);fill-rule:nonzero;"/>
        <path d="M150.708,2756.98C162.714,2756.69 244.896,2674.63 262.298,2662.6C281.812,2649.13 304.671,2638.92 325.574,2627.72C357.276,2610.55 388.828,2593.12 420.23,2575.42L549.53,2502.63C570.191,2491.06 591.423,2476.93 613.377,2468.39C599.46,2490.67 542.218,2607.85 535.767,2613.39C545.374,2613.91 598.633,2579.25 607.8,2571.05C609.182,2569.8 609.98,2568.66 611.017,2567.14C615.704,2578.15 675.78,2672.95 683.812,2677C694.571,2679.1 798.165,2645.03 815.533,2638.88C803.945,2652.57 637.648,2762.28 629.625,2763.38C629.418,2763.4 629.208,2763.43 628.998,2763.43C619.284,2742.8 608.252,2718.83 602.03,2696.99C598.284,2701.72 593.856,2704.21 588.616,2707C565.72,2719.15 541.522,2729.45 518.047,2740.46L388.984,2800.57C374.335,2807.31 332.752,2829.18 320.478,2831.18C318.035,2831.57 315.87,2831.45 313.482,2830.91C316.155,2830.08 317.944,2829.45 320.026,2827.5C338.925,2809.73 454.784,2676.9 463.626,2660.55C464.712,2658.53 465.702,2656.46 466.597,2654.35C463.5,2658.01 460.217,2661.13 456.031,2663.53C433.183,2676.59 229.805,2774.48 217.247,2774.85C215.255,2774.91 213.271,2774.82 211.295,2774.56C222.561,2773.58 282.515,2718.71 292.778,2706.43C295.141,2703.6 296.99,2700.31 298.726,2697.06C295.565,2700.67 292.209,2703.77 287.936,2706.02C276.083,2712.29 152.075,2766.31 147.781,2766.18C146.988,2766.16 146.232,2765.84 145.458,2765.67C148.376,2763.77 149.374,2760.06 150.708,2756.98Z" style="fill:rgb(202,224,170);fill-rule:nonzero;"/>
        <path d="M751.986,2807.07C757.737,2819.05 849.379,2933.35 853.941,2935.2C861.763,2931.2 888.582,2896.84 892.331,2887.66C900.703,2894.32 1143.34,2980.6 1153.24,2979.63C1153.44,2979.63 1153.64,2979.58 1153.84,2979.53C1140.19,2995.51 1095.67,3008.28 1084.79,3022.09L1085.31,3023.56C1084.1,3024.17 1083.76,3024.39 1082.58,3024.8C1071.34,3028.61 852.791,3025.76 822.738,3025.76L341.485,3025.76C258.444,3025.8 175.165,3027.39 92.148,3025.95C87.091,3025.88 83.138,3025.68 78.455,3023.56C124.087,3004.13 464.507,2856.44 478.352,2842.21C478.625,2842.6 478.869,2842.99 479.167,2843.36C485.761,2851.41 568.087,2911.48 575.858,2912.51C576.498,2912.51 577.138,2912.53 577.774,2912.51C583.842,2912.26 745.914,2814.27 751.986,2807.07Z" style="fill:rgb(36,53,25);fill-rule:nonzero;"/>
        <path d="M613.377,2468.39C652.997,2480.2 692.49,2492.42 731.858,2505.05C749.141,2510.47 767.061,2517.6 784.651,2521.57C787.05,2522.11 789.01,2521.92 791.309,2521.09C796.728,2526.65 810.85,2532.56 818.801,2532.73C820.625,2532.78 822.019,2532.17 823.659,2531.48C830.649,2539.42 861.521,2548.1 872.695,2549.4C874.313,2549.59 875.487,2549.18 877.018,2548.74C883.898,2554.96 895.189,2557.33 904.203,2558.65L908.776,2556.89C910.282,2558.65 912.064,2560.5 914.246,2561.38C926.32,2566.29 981.825,2583.76 993.289,2585.13C995.801,2585.45 997.414,2584.89 999.772,2584.18C1007.5,2591.84 1078.77,2613.79 1089.81,2614.74C1091.37,2614.86 1092.61,2614.52 1094.1,2614.13C1094.73,2615 1096.25,2617.74 1097.04,2618.2C1107.54,2624.52 1164.54,2637.7 1181.85,2642.63C1210.66,2650.69 1239.18,2659.62 1267.42,2669.43C1305.25,2682.56 1339.98,2699.77 1376.54,2715.64C1407.52,2729.09 1440.11,2740.85 1472.2,2751.39C1508.16,2763.21 1544.44,2771.09 1581.75,2777.19C1614.29,2782.51 1835.68,2812.24 1855.05,2806.82L1851.41,2810.85C1827.03,2818.22 1799.82,2821.05 1774.8,2826.32C1747.87,2832.01 1721.2,2840.36 1694.1,2844.97C1688.03,2846.02 1682.01,2845.9 1675.91,2845.29C1642.27,2841.85 1582.49,2826.15 1553.2,2827.13C1524.64,2828.08 1492.73,2845.26 1464.7,2841.5C1446.34,2844.56 1357.95,2801.45 1328.97,2798.38C1303.48,2795.69 1220.25,2820.15 1204.77,2812.66C1188.19,2810.78 1153.47,2789.66 1136.55,2781.51L915.54,2676.8C891.284,2665.48 849.562,2642.56 825.768,2636.41C823.073,2637.75 820.554,2639.22 817.449,2639.05C816.81,2639 816.173,2638.92 815.533,2638.88C798.165,2645.03 694.571,2679.1 683.812,2677C675.78,2672.95 615.704,2578.15 611.017,2567.14C609.98,2568.66 609.182,2569.8 607.8,2571.05C598.633,2579.25 545.374,2613.91 535.767,2613.39C542.218,2607.85 599.46,2490.67 613.377,2468.39Z" style="fill:rgb(116,182,67);fill-rule:nonzero;"/>
        <path d="M1562.86,1876.67C1616.1,1929 1670.16,1980.48 1725.03,2031.11C1747.3,2051.97 1768.92,2073.92 1791.8,2094.07C1818.78,2119.71 1846.11,2145.6 1874.81,2169.31C1892.5,2185.6 1911,2205.84 1930.91,2219.12C1952.56,2241.99 1977.67,2262.41 2001.12,2283.46C2031.45,2310.69 2061.47,2339.28 2093.74,2364.21C2110.4,2381.03 2140.07,2408.2 2160.38,2420.69C2171.95,2433.81 2186.82,2445.08 2200.03,2456.58L2270.57,2517.79L2342.69,2580.1C2356.41,2591.92 2370.08,2605.27 2385.04,2615.42L2385.04,2614C2385.46,2614.17 2385.88,2614.32 2386.3,2614.47C2387.78,2615 2387.18,2614.98 2388.24,2614.83C2389.3,2641.93 2388.95,2669.14 2389,2696.26C2389.03,2711.02 2390.24,2727.08 2388.4,2741.68L2389.29,2752.42C2393.97,2765.87 2446.69,2845.95 2457.5,2851.39C2445.64,2854.15 2397.68,2832.91 2386.52,2825.59C2384.77,2824.44 2383.22,2823.3 2381.71,2821.86C2389.49,2836.67 2434.63,2910.7 2444.63,2917.78C2433.04,2919.8 2403.96,2904.74 2394.04,2897.37C2391.93,2895.79 2390.16,2893.76 2388.54,2891.69C2395.52,2921.44 2406.62,2950.87 2416.08,2979.92C2420.45,2993.32 2424.03,3010.5 2430.63,3022.78C2422.53,3026.34 2414.65,3027.44 2406.26,3024C2405.94,3023.85 2405.63,3023.68 2405.32,3023.53C2400.29,3014.99 2364.04,2996.54 2353.83,2990.02C2327.28,2973.25 2300.65,2956.6 2273.93,2940.09C2253.16,2927.2 2232.45,2913.14 2210.09,2903.13C2193.43,2895.69 2174.97,2891.1 2157.55,2885.66L2067.65,2857.61C2044.44,2850.36 1918.18,2814.41 1905.59,2802.87C1903.96,2804.09 1902.36,2805.21 1900.62,2806.26C1894.77,2809.8 1889.1,2811.8 1882.32,2810.17C1873.57,2811.24 1863.41,2809.48 1855.05,2806.82C1835.68,2812.24 1614.29,2782.51 1581.75,2777.19C1544.44,2771.09 1508.16,2763.21 1472.2,2751.39C1440.11,2740.85 1407.52,2729.09 1376.54,2715.64C1339.98,2699.77 1305.25,2682.56 1267.42,2669.43C1239.18,2659.62 1210.66,2650.69 1181.85,2642.63C1164.54,2637.7 1107.54,2624.52 1097.04,2618.2C1096.25,2617.74 1094.73,2615 1094.1,2614.13C1092.61,2614.52 1091.37,2614.86 1089.81,2614.74C1078.77,2613.79 1007.5,2591.84 999.772,2584.18C997.414,2584.89 995.801,2585.45 993.289,2585.13C981.825,2583.76 926.32,2566.29 914.246,2561.38C912.064,2560.5 910.282,2558.65 908.776,2556.89L904.203,2558.65C895.189,2557.33 883.898,2554.96 877.018,2548.74C883.459,2547.54 898.467,2528.73 904.334,2523.11C936.389,2492.46 969.385,2463.44 1003.31,2434.88C1044.72,2399.38 1087.79,2366.01 1132.52,2334.77C1159.95,2315.49 1189,2298.6 1216.36,2279.26C1251.05,2254.75 1303.26,2209.17 1332.45,2177.88C1375.67,2131.57 1412.23,2080.23 1449.48,2029.18C1486.22,1978.83 1523.92,1928 1562.6,1879.18L1562.86,1876.67Z" style="fill:rgb(14,119,72);fill-rule:nonzero;"/>
        <path d="M999.772,2584.18C1016.04,2575.39 1031.99,2559.89 1046.64,2548.45C1093.03,2512.23 1145.79,2465.97 1197.51,2439.44C1180.98,2492.77 1158.92,2545.71 1138.31,2597.65C1132.8,2603.49 1103.38,2613.74 1095.25,2614.15C1094.87,2614.17 1094.48,2614.13 1094.1,2614.13C1092.61,2614.52 1091.37,2614.86 1089.81,2614.74C1078.77,2613.79 1007.5,2591.84 999.772,2584.18Z" style="fill:rgb(137,199,93);fill-rule:nonzero;"/>
        <path d="M1602.77,2121.4C1636.36,2129.88 1672.21,2137.46 1706.6,2141.43C1712.16,2142.28 1717.66,2142.87 1723.28,2143.28C1727.5,2147.48 1732.07,2153.01 1736.77,2156.56C1757.18,2182.12 1782.89,2205.35 1805.27,2229.38C1833.25,2259.42 1860.61,2289.99 1889.11,2319.55C1928.6,2360.5 1969.3,2400.27 2008.7,2441.33L1810.69,2299.3C1745.41,2253.09 1679.01,2208.1 1614.9,2160.28C1611.42,2147.24 1606.83,2134.28 1602.77,2121.4Z" style="fill:rgb(137,199,93);fill-rule:nonzero;"/>
        <path d="M1562.86,1876.67C1616.1,1929 1670.16,1980.48 1725.03,2031.11C1747.3,2051.97 1768.92,2073.92 1791.8,2094.07C1791.4,2124.49 1867.57,2229.33 1884.55,2261.52C1862.67,2247.03 1752.05,2157.22 1736.77,2156.56C1732.07,2153.01 1727.5,2147.48 1723.28,2143.28C1717.66,2142.87 1712.16,2142.28 1706.6,2141.43L1708.88,2140.73C1711.42,2134.88 1651.02,2087.62 1641.91,2076.5C1600.19,2025.6 1581.04,1954.74 1566.7,1891.73L1564.85,1891.4L1562.55,1899.8L1562.6,1879.18L1562.86,1876.67Z" style="fill:rgb(14,139,72);fill-rule:nonzero;"/>
        <path d="M1600.41,2143.04C1605.89,2185.01 1623.2,2313.27 1644.93,2345.7C1656.76,2363.35 1680.11,2379.3 1696.33,2393.43L1775.84,2462.87C1750.48,2484.11 1630.23,2577.39 1606.96,2576.27C1606.03,2575.27 1606.18,2575.51 1605.26,2573.95C1600.43,2565.85 1600.47,2530.58 1599.55,2518.74C1592.12,2422.41 1578.66,2232.97 1600.41,2143.04Z" style="fill:rgb(14,139,72);fill-rule:nonzero;"/>
        <path d="M1222.11,2578.05C1222.23,2572.05 1334.99,2377.53 1346.62,2366.14C1364.15,2348.96 1387.63,2335.17 1407.42,2320.55L1525.49,2232.23C1524.07,2261.54 1522.64,2358.89 1515.83,2380.96C1510.12,2399.46 1431.11,2514.84 1414.51,2536.02C1398,2557.11 1379.48,2577.66 1360.06,2596.07L1355.67,2596.8C1344.31,2598.73 1307.36,2579.52 1292.28,2576.93C1270.86,2573.24 1239.81,2583.59 1222.11,2578.05Z" style="fill:rgb(137,199,93);fill-rule:nonzero;"/>
        <path d="M877.018,2548.74C883.459,2547.54 898.467,2528.73 904.334,2523.11C936.389,2492.46 969.385,2463.44 1003.31,2434.88C1044.72,2399.38 1087.79,2366.01 1132.52,2334.77C1159.95,2315.49 1189,2298.6 1216.36,2279.26C1251.05,2254.75 1303.26,2209.17 1332.45,2177.88C1375.67,2131.57 1412.23,2080.23 1449.48,2029.18C1486.22,1978.83 1523.92,1928 1562.6,1879.18L1562.55,1899.8C1560.53,1983.73 1556.08,2068.13 1550.59,2151.91C1450.75,2210.17 1352.06,2270.33 1254.53,2332.37L987.09,2505.39C971.408,2515.62 922.035,2553.16 908.776,2556.89L904.203,2558.65C895.189,2557.33 883.898,2554.96 877.018,2548.74Z" style="fill:rgb(137,199,93);fill-rule:nonzero;"/>
        <path d="M1859.32,2381.27C1950.23,2475.62 2054.79,2547.4 2180.29,2587.86C2212.11,2598.12 2249.7,2608.46 2283.16,2609.03C2288.82,2609.1 2294.41,2609.32 2299.6,2606.76C2317.35,2641.15 2343.59,2672.39 2363.97,2705.43C2367.5,2711.15 2381.57,2738.55 2385.3,2740.63C2385.85,2740.92 2386.36,2741.31 2386.96,2741.51C2387.42,2741.65 2387.92,2741.61 2388.4,2741.68L2389.29,2752.42C2393.97,2765.87 2446.69,2845.95 2457.5,2851.39C2445.64,2854.15 2397.68,2832.91 2386.52,2825.59C2384.77,2824.44 2383.22,2823.3 2381.71,2821.86C2389.49,2836.67 2434.63,2910.7 2444.63,2917.78C2433.04,2919.8 2403.96,2904.74 2394.04,2897.37C2391.93,2895.79 2390.16,2893.76 2388.54,2891.69C2395.52,2921.44 2406.62,2950.87 2416.08,2979.92C2420.45,2993.32 2424.03,3010.5 2430.63,3022.78C2422.53,3026.34 2414.65,3027.44 2406.26,3024C2405.94,3023.85 2405.63,3023.68 2405.32,3023.53C2400.29,3014.99 2364.04,2996.54 2353.83,2990.02C2327.28,2973.25 2300.65,2956.6 2273.93,2940.09C2253.16,2927.2 2232.45,2913.14 2210.09,2903.13C2193.43,2895.69 2174.97,2891.1 2157.55,2885.66L2067.65,2857.61C2044.44,2850.36 1918.18,2814.41 1905.59,2802.87C1903.96,2804.09 1902.36,2805.21 1900.62,2806.26C1894.77,2809.8 1889.1,2811.8 1882.32,2810.17C1873.57,2811.24 1863.41,2809.48 1855.05,2806.82C1835.68,2812.24 1614.29,2782.51 1581.75,2777.19C1544.44,2771.09 1508.16,2763.21 1472.2,2751.39C1440.11,2740.85 1407.52,2729.09 1376.54,2715.64C1339.98,2699.77 1305.25,2682.56 1267.42,2669.43C1239.18,2659.62 1210.66,2650.69 1181.85,2642.63C1164.54,2637.7 1107.54,2624.52 1097.04,2618.2C1096.25,2617.74 1094.73,2615 1094.1,2614.13C1094.48,2614.13 1094.87,2614.17 1095.25,2614.15C1103.38,2613.74 1132.8,2603.49 1138.31,2597.65C1139.76,2598.21 1140.5,2598.65 1142.03,2598.75C1148.48,2599.17 1218.17,2581.32 1222.11,2578.05C1239.81,2583.59 1270.86,2573.24 1292.28,2576.93C1307.36,2579.52 1344.31,2598.73 1355.67,2596.8C1358.98,2600.75 1438.37,2644.05 1449.87,2651.13L1454.31,2651.2C1455.01,2651.08 1455.72,2650.98 1456.42,2650.84C1473.77,2647.52 1599.61,2586.99 1606.96,2576.27C1630.23,2577.39 1750.48,2484.11 1775.84,2462.87C1806.02,2438.9 1833.31,2409.66 1859.32,2381.27Z" style="fill:rgb(36,53,25);fill-rule:nonzero;"/>
        <path d="M1859.32,2381.27C1950.23,2475.62 2054.79,2547.4 2180.29,2587.86C2212.11,2598.12 2249.7,2608.46 2283.16,2609.03C2288.82,2609.1 2294.41,2609.32 2299.6,2606.76C2317.35,2641.15 2343.59,2672.39 2363.97,2705.43C2367.5,2711.15 2381.57,2738.55 2385.3,2740.63C2385.85,2740.92 2386.36,2741.31 2386.96,2741.51C2387.42,2741.65 2387.92,2741.61 2388.4,2741.68L2389.29,2752.42C2387.68,2751.88 2388.42,2752.25 2386.8,2751.15C2350.92,2727.06 2310.1,2707.41 2271.92,2687.03C2259.12,2680.2 2240.86,2673.63 2230.5,2663.94C2232.91,2672.09 2276.15,2730.74 2282.73,2735.14C2282.41,2735.19 2282.07,2735.21 2281.74,2735.28C2280.5,2735.48 2280.58,2735.55 2279.18,2735.65C2264.83,2736.65 2063.63,2660.23 2050.91,2648.76C2055.01,2661.09 2079.32,2714.39 2087.46,2723.5C2084.63,2723.96 2081.93,2724.52 2079.05,2724.03C2066.17,2721.86 1976.8,2698.36 1968.43,2692.42C1968.21,2692.77 1968.01,2693.11 1967.77,2693.43C1961.4,2701.72 1907.06,2742.51 1898.27,2743.56C1890.32,2738.29 1834.34,2659.94 1829.39,2648.91C1828.93,2649.37 1828.48,2649.83 1828.01,2650.3C1823.35,2654.64 1595.86,2745.05 1590.91,2744.97C1590.23,2744.88 1588.84,2744.71 1588.1,2744.44C1582.38,2742.41 1574.73,2735.21 1569.61,2731.48C1534.01,2705.41 1496.04,2683.57 1460.14,2658.25C1457.15,2656.13 1455.85,2654.52 1454.31,2651.2C1455.01,2651.08 1455.72,2650.98 1456.42,2650.84C1473.77,2647.52 1599.61,2586.99 1606.96,2576.27C1630.23,2577.39 1750.48,2484.11 1775.84,2462.87C1806.02,2438.9 1833.31,2409.66 1859.32,2381.27Z" style="fill:rgb(49,75,33);fill-rule:nonzero;"/>
        <path d="M1161.21,764.136C1171.91,747.966 1179.62,728.06 1188.88,710.826C1203.8,683.08 1306.04,493.977 1317.18,489.478L1393.55,690.043C1399.57,706.251 1416.88,761.737 1424.43,773.599C1446.26,809.15 1467.58,844.998 1489.78,880.322C1504.22,903.304 1519.95,925.722 1533.42,949.28C1544.5,981.329 1551.11,1015.31 1558.56,1048.38C1572.62,1102.46 1585.28,1156.87 1596.54,1211.61C1604.72,1247.93 1610.36,1285.18 1619.8,1321.15C1628.75,1355.25 1641.62,1388.51 1650.13,1422.65C1653.79,1434.5 1658.42,1446.67 1661,1458.78C1649.91,1475.46 1678.41,1641.63 1684.68,1672.74C1689.26,1694.76 1693.63,1716.83 1697.81,1738.93C1701.34,1758.28 1703.21,1780.84 1710.64,1799.05C1719.88,1821.69 1738.47,1844.48 1751.85,1865.07C1778.89,1906.68 1804.29,1949.39 1831.57,1990.89C1846.77,2014.02 1866.09,2036.91 1879.13,2061.17C1889.75,2080.93 1895.13,2104.39 1901.83,2125.76C1911.82,2156.79 1921.51,2187.91 1930.91,2219.12C1911,2205.84 1892.5,2185.6 1874.81,2169.31C1846.11,2145.6 1818.78,2119.71 1791.8,2094.07C1768.92,2073.92 1747.3,2051.97 1725.03,2031.11C1670.16,1980.48 1616.1,1929 1562.86,1876.67L1562.6,1879.18C1523.92,1928 1486.22,1978.83 1449.48,2029.18C1412.23,2080.23 1375.67,2131.57 1332.45,2177.88C1303.26,2209.17 1251.05,2254.75 1216.36,2279.26C1189,2298.6 1159.95,2315.49 1132.52,2334.77C1087.79,2366.01 1044.72,2399.38 1003.31,2434.88C969.385,2463.44 936.389,2492.46 904.334,2523.11C898.467,2528.73 883.459,2547.54 877.018,2548.74C875.487,2549.18 874.313,2549.59 872.695,2549.4C861.521,2548.1 830.649,2539.42 823.659,2531.48C822.019,2532.17 820.625,2532.78 818.801,2532.73C810.85,2532.56 796.728,2526.65 791.309,2521.09C789.01,2521.92 787.05,2522.11 784.651,2521.57C767.061,2517.6 749.141,2510.47 731.858,2505.05C692.49,2492.42 652.997,2480.2 613.377,2468.39C591.423,2476.93 570.191,2491.06 549.53,2502.63L420.23,2575.42C388.828,2593.12 357.276,2610.55 325.574,2627.72C304.671,2638.92 281.812,2649.13 262.298,2662.6C244.896,2674.63 162.714,2756.69 150.708,2756.98C149.374,2760.06 148.376,2763.77 145.458,2765.67C136.443,2773.65 115.813,2796.08 104.512,2798.3C109.05,2770.65 105.511,2737.58 105.989,2709.34C103.374,2668.07 105.744,2625.11 105.873,2583.64C114.584,2578.74 130.554,2552.47 137.365,2543.47C156.176,2518.57 179.926,2492.68 194.172,2465C214.095,2426.32 232.209,2369.54 248.261,2327.53C255.076,2309.69 261.153,2290.67 271.082,2274.27C279.549,2260.28 292.851,2247.1 303.407,2234.52C330.692,2201.98 361.272,2168.44 384.945,2133.23C405.078,2103.29 421.082,2056.62 435.863,2022.66C388.901,1904.65 365.37,1787.31 364.374,1660.19C370.334,1657.7 633.643,1654.26 660.059,1655.73C660.164,1655.67 660.273,1655.61 660.374,1655.53C670.21,1648.32 739.261,1518.83 747.566,1498.73C750.817,1490.87 751.837,1482.42 753.019,1474.05C756.465,1464.21 760.361,1454.49 765.245,1445.27C779.22,1418.88 807.352,1379.13 836.887,1369.91C856.65,1382 883.649,1435.5 898.45,1441.26C892.136,1425.95 888.353,1409.83 881.152,1394.84C897.535,1357.02 917.388,1320.81 933.164,1282.71C949.51,1247.49 961.313,1208.57 974.42,1171.96C984.234,1147.91 988.767,1119.09 995.327,1093.78L1035.29,943.127C1056.57,922.918 1089.27,896.277 1106.74,873.688C1121.25,854.934 1149.25,788.714 1161.21,764.136Z" style="fill:rgb(79,110,120);fill-rule:nonzero;"/>
        <path d="M957.562,1695.89C958.433,1685.76 959.104,1676.29 963.593,1667.01C986.587,1619.46 1030.25,1561.77 1060.25,1516.06C1079.21,1487.16 1108.37,1434.4 1131.12,1410.6C1124.89,1430.43 1112.15,1450.85 1102.64,1469.42C1066.94,1538.18 1028.76,1605.54 988.105,1671.48C988.037,1709.09 988.515,1746.46 989.658,1784.04C1016.31,1750.87 1043.83,1716.58 1067.79,1681.41C1092.31,1645.43 1114.79,1606.03 1136.49,1568.23C1122.89,1625.05 1107.55,1681.49 1093.38,1738.19C1087.33,1762.39 1077.67,1789.9 1076.33,1814.76C1075.37,1832.48 1090.44,1908.36 1096.43,1925.8C1061.99,1969.06 1035.67,2016.13 1014.5,2067.18C1003.58,2093.51 994.195,2120.82 982.379,2146.72C956.042,2160.24 930.119,2174.5 904.61,2189.52C878.583,2205.13 853.06,2222.32 826.221,2236.47C794.956,2252.95 760.587,2263.79 728.497,2278.54L682.099,2360.46C636.291,2363.15 590.156,2369.56 544.307,2369.81C505.448,2411.7 472.674,2419.18 424.458,2446.35C413.975,2462.56 359.827,2560.7 352.808,2565.04C344.075,2570.58 262.173,2587.28 251.715,2585.01C251.205,2584.91 250.7,2584.76 250.192,2584.64C240.064,2602.34 226.096,2618.3 214.634,2635.24C200.544,2656.06 153.886,2733.19 150.708,2756.98C149.374,2760.06 148.376,2763.77 145.458,2765.67C136.443,2773.65 115.813,2796.08 104.512,2798.3C109.05,2770.65 105.511,2737.58 105.989,2709.34C123.984,2706.7 179.132,2568.09 206.467,2550.5C207.749,2550.86 208.141,2551.06 209.386,2551.2C217.681,2552.06 319.921,2525.04 328.554,2518.72C339.879,2512.2 388.867,2430.72 400.341,2414.44C413.069,2396.39 431.873,2383.96 448.526,2369.76C462.194,2358.11 475.303,2345.92 488.363,2333.59C522.919,2332.81 557.434,2328.56 591.984,2328.63C603.595,2326.55 615.943,2326.8 627.739,2325.82L647.367,2324.98C661.736,2292.7 676.806,2260.75 692.577,2229.12C723.22,2223.39 765.911,2219.75 793.542,2206.27C803.842,2201.25 813.532,2193.91 823,2187.46C834.434,2179.83 845.801,2172.09 857.102,2164.26C876.215,2070.38 898.997,1977.2 918.43,1883.34L943.35,1759.18C947.706,1738.14 951.277,1716.43 957.562,1695.89Z" style="fill:rgb(163,190,158);fill-rule:nonzero;"/>
        <path d="M957.562,1695.89C960.293,1727.44 953.259,1763.52 951.191,1795.35C947.675,1851.79 946.251,1908.28 946.92,1964.83C975.443,1935.4 1006.48,1904.31 1041.85,1883.02C1014.08,1957.46 984.646,2031.95 951.75,2104.3L857.102,2164.26C876.215,2070.38 898.997,1977.2 918.43,1883.34L943.35,1759.18C947.706,1738.14 951.277,1716.43 957.562,1695.89Z" style="fill:rgb(139,160,146);fill-rule:nonzero;"/>
        <path d="M1161.21,764.136C1171.91,747.966 1179.62,728.06 1188.88,710.826C1203.8,683.08 1306.04,493.977 1317.18,489.478C1317.12,489.993 1317.04,490.511 1316.99,491.028C1314.95,509.793 1317.72,530.561 1318.57,549.439C1320.17,584.105 1321.41,618.782 1322.29,653.471C1326.45,794.971 1329.73,936.492 1332.14,1078.03C1333.46,1183.13 1342.11,1290.72 1317.47,1393.86C1306.89,1438.14 1292,1481.22 1266.38,1519.27C1251.66,1541.12 1201.65,1594.87 1196.26,1613.91C1188.56,1641.04 1182.38,1668.61 1174.65,1695.78C1163.9,1733.58 1151.6,1771.17 1142.08,1809.29C1135.24,1836.71 1134.37,1868.7 1123.56,1894.68C1119.02,1905.57 1104.73,1917.19 1096.43,1925.8C1090.44,1908.36 1075.37,1832.48 1076.33,1814.76C1077.67,1789.9 1087.33,1762.39 1093.38,1738.19C1107.55,1681.49 1122.89,1625.05 1136.49,1568.23C1114.79,1606.03 1092.31,1645.43 1067.79,1681.41C1043.83,1716.58 1016.31,1750.87 989.658,1784.04C988.515,1746.46 988.037,1709.09 988.105,1671.48C1028.76,1605.54 1066.94,1538.18 1102.64,1469.42C1112.15,1450.85 1124.89,1430.43 1131.12,1410.6C1142.67,1382.52 1152.94,1353.4 1165.89,1325.97C1141.17,1352.99 1118.1,1381.41 1094.21,1409.14C1074.6,1431.88 1053.75,1453.81 1035.47,1477.66C1003.61,1519.24 976.194,1564.07 941.756,1603.63C949.09,1585.69 956.949,1567.81 963.744,1549.66L923.938,1484.22L919.286,1477.37C911.186,1465.87 904.603,1453.87 898.45,1441.26C892.136,1425.95 888.353,1409.83 881.152,1394.84C897.535,1357.02 917.388,1320.81 933.164,1282.71C949.51,1247.49 961.313,1208.57 974.42,1171.96C984.234,1147.91 988.767,1119.09 995.327,1093.78L1035.29,943.127C1056.57,922.918 1089.27,896.277 1106.74,873.688C1121.25,854.934 1149.25,788.714 1161.21,764.136Z" style="fill:rgb(215,238,236);fill-rule:nonzero;"/>
        <path d="M1143.99,1121.98C1168.86,1053.87 1182.76,981.078 1196.99,910.192C1205.7,867.893 1214.64,825.641 1223.81,783.438C1224.84,811.837 1222.91,840.545 1222.47,868.973L1220.25,1010.62C1218.85,1068.78 1216.78,1126.65 1219.98,1184.8C1226.26,1169.14 1230.74,1152.29 1235.93,1136.2C1236.7,1157.31 1235.99,1178.65 1235.9,1199.79C1233.26,1203.77 1230.04,1207.45 1227.07,1211.2C1211.04,1212.45 1171.94,1244.34 1158.07,1254.44C1163.28,1208.85 1177.44,1165.32 1183.87,1120.27C1188.04,1091.04 1186.31,1055.94 1184.51,1026.42C1168.99,1080.43 1153.74,1134 1133.26,1186.44C1124.4,1165.45 1115.79,1144.35 1107.44,1123.15C1090.04,1181.75 1069.42,1241.64 1045.03,1297.72C1037.2,1276.17 1029.62,1254.54 1022.29,1232.82C1006.27,1297.38 981.964,1355.99 955.702,1416.77C946.029,1439.16 937.121,1463.69 923.938,1484.22L919.286,1477.37C929.633,1460.52 957.252,1361.64 965.692,1335.44C982.525,1284.48 1000.08,1233.77 1018.35,1183.31C1025.52,1196.34 1033.04,1209.15 1040.89,1221.77C1072.27,1141.45 1099.27,1054.88 1118.46,970.805C1126.04,1021.37 1135.54,1071.56 1143.99,1121.98Z" style="fill:rgb(163,190,158);fill-rule:nonzero;"/>
        <path d="M1133.26,1186.44C1153.74,1134 1168.99,1080.43 1184.51,1026.42C1186.31,1055.94 1188.04,1091.04 1183.87,1120.27C1177.44,1165.32 1163.28,1208.85 1158.07,1254.44C1171.94,1244.34 1211.04,1212.45 1227.07,1211.2C1199.24,1250.5 1169.76,1288.53 1138.63,1325.29C1106.77,1362.07 1075.37,1399.24 1044.43,1436.79C1013.17,1474.44 985.201,1505.04 963.744,1549.66L923.938,1484.22C937.121,1463.69 946.029,1439.16 955.702,1416.77C981.964,1355.99 1006.27,1297.38 1022.29,1232.82C1029.62,1254.54 1037.2,1276.17 1045.03,1297.72C1069.42,1241.64 1090.04,1181.75 1107.44,1123.15C1115.79,1144.35 1124.4,1165.45 1133.26,1186.44Z" style="fill:rgb(139,160,146);fill-rule:nonzero;"/>
        <path d="M1424.43,773.599C1446.26,809.15 1467.58,844.998 1489.78,880.322C1504.22,903.304 1519.95,925.722 1533.42,949.28C1544.5,981.329 1551.11,1015.31 1558.56,1048.38C1572.62,1102.46 1585.28,1156.87 1596.54,1211.61C1604.72,1247.93 1610.36,1285.18 1619.8,1321.15C1628.75,1355.25 1641.62,1388.51 1650.13,1422.65C1653.79,1434.5 1658.42,1446.67 1661,1458.78C1649.91,1475.46 1678.41,1641.63 1684.68,1672.74C1689.26,1694.76 1693.63,1716.83 1697.81,1738.93C1701.34,1758.28 1703.21,1780.84 1710.64,1799.05C1719.88,1821.69 1738.47,1844.48 1751.85,1865.07C1778.89,1906.68 1804.29,1949.39 1831.57,1990.89C1846.77,2014.02 1866.09,2036.91 1879.13,2061.17C1889.75,2080.93 1895.13,2104.39 1901.83,2125.76C1911.82,2156.79 1921.51,2187.91 1930.91,2219.12C1911,2205.84 1892.5,2185.6 1874.81,2169.31C1846.11,2145.6 1818.78,2119.71 1791.8,2094.07C1768.92,2073.92 1747.3,2051.97 1725.03,2031.11C1670.16,1980.48 1616.1,1929 1562.86,1876.67L1562.6,1879.18C1523.92,1928 1486.22,1978.83 1449.48,2029.18C1412.23,2080.23 1375.67,2131.57 1332.45,2177.88C1303.26,2209.17 1251.05,2254.75 1216.36,2279.26C1189,2298.6 1159.95,2315.49 1132.52,2334.77C1087.79,2366.01 1044.72,2399.38 1003.31,2434.88C969.385,2463.44 936.389,2492.46 904.334,2523.11C898.467,2528.73 883.459,2547.54 877.018,2548.74C875.487,2549.18 874.313,2549.59 872.695,2549.4C861.521,2548.1 830.649,2539.42 823.659,2531.48C822.019,2532.17 820.625,2532.78 818.801,2532.73C810.85,2532.56 796.728,2526.65 791.309,2521.09C801.602,2516.84 889.197,2440.06 906.37,2425.83C943.032,2395.47 987.327,2369.5 1021.44,2339.97C1090.13,2280.5 1160.8,2157.94 1207.22,2078.07C1217.05,2061.17 1226.58,2043.94 1234.24,2025.92C1241.15,2009.66 1246.55,1992.27 1255.69,1977.08C1262.86,1965.17 1272.89,1954.41 1281.83,1943.78C1304.15,1961.07 1327.46,1977.33 1350.3,1993.94C1339.03,1969.75 1318.67,1944.43 1312.76,1918.58C1308.71,1900.9 1313.92,1856.4 1314.67,1836.38C1316.38,1780.16 1318.41,1723.95 1320.75,1667.75C1346.98,1724.48 1369.27,1782.22 1397.51,1838.21C1380.71,1687.36 1366.63,1536.26 1355.29,1384.9C1352.87,1352.26 1350.62,1319.61 1348.54,1286.94C1347.56,1271.92 1344.67,1254.25 1346.3,1239.35L1348.78,1240.01L1346.48,1233.2C1350.63,1237.28 1406.96,1550.73 1422.55,1593.66C1428.29,1609.47 1501.54,1688.86 1518.41,1711.95C1511.36,1677.51 1502.04,1643.21 1494.01,1608.96C1477.18,1538.16 1460.76,1467.27 1444.77,1396.27C1435.03,1353.73 1423.94,1310.89 1417.31,1267.72C1435.99,1288.84 1456.53,1308.19 1476.9,1327.64C1471.32,1305.31 1467.41,1282.38 1462.48,1259.88C1441.83,1165.79 1424.36,1071.09 1404.49,976.858C1435.5,1025.97 1461.47,1078.26 1492.67,1127.28C1485.67,1084.95 1421.64,789.175 1424.43,773.599Z" style="fill:rgb(34,48,67);fill-rule:nonzero;"/>
        <path d="M823.659,2531.48C840.517,2526.16 918.393,2460.09 938.773,2444.37C985.85,2408.08 1035.59,2375.18 1082.78,2338.98C1116.2,2312.92 1148.81,2285.89 1180.61,2257.88C1212.41,2229.86 1243.35,2200.93 1273.42,2171.07C1305.79,2139.02 1336.53,2105.48 1365.66,2070.46C1384.69,2047.21 1401.65,2022.37 1421.97,2000.17C1463.78,1954.5 1513.94,1914.46 1562.86,1876.67L1562.6,1879.18C1523.92,1928 1486.22,1978.83 1449.48,2029.18C1412.23,2080.23 1375.67,2131.57 1332.45,2177.88C1303.26,2209.17 1251.05,2254.75 1216.36,2279.26C1189,2298.6 1159.95,2315.49 1132.52,2334.77C1087.79,2366.01 1044.72,2399.38 1003.31,2434.88C969.385,2463.44 936.389,2492.46 904.334,2523.11C898.467,2528.73 883.459,2547.54 877.018,2548.74C875.487,2549.18 874.313,2549.59 872.695,2549.4C861.521,2548.1 830.649,2539.42 823.659,2531.48Z" style="fill:rgb(202,224,170);fill-rule:nonzero;"/>
        <path d="M1533.42,949.28C1544.5,981.329 1551.11,1015.31 1558.56,1048.38C1572.62,1102.46 1585.28,1156.87 1596.54,1211.61C1604.72,1247.93 1610.36,1285.18 1619.8,1321.15C1628.75,1355.25 1641.62,1388.51 1650.13,1422.65C1653.79,1434.5 1658.42,1446.67 1661,1458.78C1649.91,1475.46 1678.41,1641.63 1684.68,1672.74C1689.26,1694.76 1693.63,1716.83 1697.81,1738.93C1701.34,1758.28 1703.21,1780.84 1710.64,1799.05C1719.88,1821.69 1738.47,1844.48 1751.85,1865.07C1778.89,1906.68 1804.29,1949.39 1831.57,1990.89C1846.77,2014.02 1866.09,2036.91 1879.13,2061.17C1889.75,2080.93 1895.13,2104.39 1901.83,2125.76C1911.82,2156.79 1921.51,2187.91 1930.91,2219.12C1911,2205.84 1892.5,2185.6 1874.81,2169.31C1873.57,2157.57 1867.43,2143.93 1863.51,2132.78C1857.21,2114.9 1851.38,2095.85 1841.94,2079.38C1833.22,2064.17 1820.57,2050.41 1809.5,2036.82C1782.75,2003.96 1753.65,1971.92 1729.15,1937.38C1709.04,1909.02 1652.76,1805.67 1640.89,1772.05C1630.78,1743.42 1632.22,1705.45 1629.85,1675.12L1615.75,1506.72C1613.18,1474.93 1612.69,1441.14 1607.27,1409.76C1603.19,1386.08 1592.34,1363.08 1584.03,1340.59C1566.66,1293.63 1548.22,1246.99 1531.4,1199.84C1524.35,1180.09 1517.43,1159.75 1514.12,1138.99C1505.89,1087.31 1510.84,996.757 1533.42,949.28Z" style="fill:rgb(52,71,90);fill-rule:nonzero;"/>
        <path d="M941.756,1603.63C976.194,1564.07 1003.61,1519.24 1035.47,1477.66C1053.75,1453.81 1074.6,1431.88 1094.21,1409.14C1118.1,1381.41 1141.17,1352.99 1165.89,1325.97C1152.94,1353.4 1142.67,1382.52 1131.12,1410.6C1108.37,1434.4 1079.21,1487.16 1060.25,1516.06C1030.25,1561.77 986.587,1619.46 963.593,1667.01C959.104,1676.29 958.433,1685.76 957.562,1695.89C951.277,1716.43 947.706,1738.14 943.35,1759.18L918.43,1883.34C898.997,1977.2 876.215,2070.38 857.102,2164.26C845.801,2172.09 834.434,2179.83 823,2187.46C813.532,2193.91 803.842,2201.25 793.542,2206.27C765.911,2219.75 723.22,2223.39 692.577,2229.12C676.806,2260.75 661.736,2292.7 647.367,2324.98L627.739,2325.82C615.943,2326.8 603.595,2326.55 591.984,2328.63C557.434,2328.56 522.919,2332.81 488.363,2333.59C475.303,2345.92 462.194,2358.11 448.526,2369.76C431.873,2383.96 413.069,2396.39 400.341,2414.44C388.867,2430.72 339.879,2512.2 328.554,2518.72C319.921,2525.04 217.681,2552.06 209.386,2551.2C208.141,2551.06 207.749,2550.86 206.467,2550.5C179.132,2568.09 123.984,2706.7 105.989,2709.34C103.374,2668.07 105.744,2625.11 105.873,2583.64C114.584,2578.74 130.554,2552.47 137.365,2543.47C156.176,2518.57 179.926,2492.68 194.172,2465C214.095,2426.32 232.209,2369.54 248.261,2327.53C255.076,2309.69 261.153,2290.67 271.082,2274.27C279.549,2260.28 292.851,2247.1 303.407,2234.52C330.692,2201.98 361.272,2168.44 384.945,2133.23C405.078,2103.29 421.082,2056.62 435.863,2022.66C388.901,1904.65 365.37,1787.31 364.374,1660.19C370.334,1657.7 633.643,1654.26 660.059,1655.73C660.164,1655.67 660.273,1655.61 660.374,1655.53C670.21,1648.32 739.261,1518.83 747.566,1498.73C750.817,1490.87 751.837,1482.42 753.019,1474.05C756.465,1464.21 760.361,1454.49 765.245,1445.27C779.22,1418.88 807.352,1379.13 836.887,1369.91C856.65,1382 883.649,1435.5 898.45,1441.26C904.603,1453.87 911.186,1465.87 919.286,1477.37L923.938,1484.22L963.744,1549.66C956.949,1567.81 949.09,1585.69 941.756,1603.63Z" style="fill:rgb(215,238,236);fill-rule:nonzero;"/>
        <path d="M435.863,2022.66C453.388,1988.13 516.463,1849.5 536.092,1829.33C527.571,1869.92 510.503,1911.03 496.425,1949.99C482.447,1988.67 469.597,2027.78 456.055,2066.61C448.772,2087.5 441.621,2121.61 430.645,2139.4C411.639,2170.23 386.207,2198.91 364.127,2227.7C320.351,2284.77 276.83,2345.29 243.444,2409.09C274.228,2374.74 301.442,2336.53 329.149,2299.71C330.39,2313.28 328.215,2322.74 322.296,2335.04C308.408,2363.9 284.652,2384.6 268.283,2411.28C250.517,2440.23 229.955,2496.31 214.445,2529.8C212.797,2533.34 204.625,2548.91 206.467,2550.5C179.132,2568.09 123.984,2706.7 105.989,2709.34C103.374,2668.07 105.744,2625.11 105.873,2583.64C114.584,2578.74 130.554,2552.47 137.365,2543.47C156.176,2518.57 179.926,2492.68 194.172,2465C214.095,2426.32 232.209,2369.54 248.261,2327.53C255.076,2309.69 261.153,2290.67 271.082,2274.27C279.549,2260.28 292.851,2247.1 303.407,2234.52C330.692,2201.98 361.272,2168.44 384.945,2133.23C405.078,2103.29 421.082,2056.62 435.863,2022.66Z" style="fill:rgb(79,110,120);fill-rule:nonzero;"/>
        <path d="M364.374,1660.19C370.334,1657.7 633.643,1654.26 660.059,1655.73C633.582,1673.77 574.946,1713.16 564.06,1741.41C553.052,1769.99 547.443,1800.91 536.092,1829.33C516.463,1849.5 453.388,1988.13 435.863,2022.66C388.901,1904.65 365.37,1787.31 364.374,1660.19Z" style="fill:rgb(52,188,170);fill-rule:nonzero;"/>
        <path d="M601.127,1888.32C638.803,1830.3 665.094,1762.08 708.568,1705.87C670.061,1797.62 619.238,1884.36 579.407,1975.55C560.406,2019.06 551.805,2068.32 529.841,2110.39C517.554,2133.92 496.691,2152.25 483.516,2175.15C468.32,2201.56 455.458,2229.77 441.257,2256.79C416.105,2304.65 390.058,2352.21 366.068,2400.65C407.144,2346.19 449.569,2292.8 493.342,2240.48C515.138,2214.09 550.253,2177.45 566.394,2148.48C576.62,2130.13 582.38,2106.12 589.28,2086.16C594.555,2095.61 591.403,2118.07 591.674,2129.36C592.341,2157.17 598.789,2184.28 599.514,2211.82C600.017,2230.98 598.877,2250.35 598.633,2269.52C598.403,2287.48 599.563,2306.76 596.976,2324.51C595.377,2326.55 594.318,2327.49 591.984,2328.63C557.434,2328.56 522.919,2332.81 488.363,2333.59C475.303,2345.92 462.194,2358.11 448.526,2369.76C431.873,2383.96 413.069,2396.39 400.341,2414.44C388.867,2430.72 339.879,2512.2 328.554,2518.72C319.921,2525.04 217.681,2552.06 209.386,2551.2C208.141,2551.06 207.749,2550.86 206.467,2550.5C204.625,2548.91 212.797,2533.34 214.445,2529.8C229.955,2496.31 250.517,2440.23 268.283,2411.28C284.652,2384.6 308.408,2363.9 322.296,2335.04C328.215,2322.74 330.39,2313.28 329.149,2299.71C359.174,2258.5 388.878,2217.07 418.263,2175.41C436.181,2149.61 455.445,2123.12 470.304,2095.48C492.852,2053.53 504.399,2005.16 524.02,1961.65C534.515,1938.39 544.815,1914.5 556.87,1892C582.246,1844.65 612.953,1798.05 640.592,1751.72C627.143,1797.28 613.221,1842.34 601.127,1888.32Z" style="fill:rgb(34,48,67);fill-rule:nonzero;"/>
        <path d="M941.756,1603.63C976.194,1564.07 1003.61,1519.24 1035.47,1477.66C1053.75,1453.81 1074.6,1431.88 1094.21,1409.14C1118.1,1381.41 1141.17,1352.99 1165.89,1325.97C1152.94,1353.4 1142.67,1382.52 1131.12,1410.6C1108.37,1434.4 1079.21,1487.16 1060.25,1516.06C1030.25,1561.77 986.587,1619.46 963.593,1667.01C959.104,1676.29 958.433,1685.76 957.562,1695.89C951.277,1716.43 947.706,1738.14 943.35,1759.18L918.43,1883.34C898.997,1977.2 876.215,2070.38 857.102,2164.26C845.801,2172.09 834.434,2179.83 823,2187.46C813.532,2193.91 803.842,2201.25 793.542,2206.27C765.911,2219.75 723.22,2223.39 692.577,2229.12C676.806,2260.75 661.736,2292.7 647.367,2324.98L627.739,2325.82C615.943,2326.8 603.595,2326.55 591.984,2328.63C594.318,2327.49 595.377,2326.55 596.976,2324.51C599.563,2306.76 598.403,2287.48 598.633,2269.52C598.877,2250.35 600.017,2230.98 599.514,2211.82C598.789,2184.28 592.341,2157.17 591.674,2129.36C591.403,2118.07 594.555,2095.61 589.28,2086.16C596.788,2062.21 604.818,2038.44 613.37,2014.85C621.922,1991.26 630.988,1967.86 640.567,1944.67C650.146,1921.47 660.229,1898.5 670.817,1875.75C681.405,1852.99 692.488,1830.48 704.065,1808.22C700.909,1824.63 698.935,1841.37 696.575,1857.92C708.014,1824.02 723.174,1790.52 736.625,1757.32C750.493,1723.07 763.307,1686.64 780.665,1654C776.596,1675.84 774.629,1698.37 771.847,1720.42L797.062,1661.83C802.725,1648.96 808.196,1636.23 812.719,1622.9C820.568,1633.04 842.347,1665.55 852.315,1669.68L852.991,1666.19C845.374,1637.82 823.119,1550.82 822.853,1525.64C822.66,1507.38 826.189,1488.18 828.23,1470.03C831.979,1436.67 835.599,1403.48 836.887,1369.91C856.65,1382 883.649,1435.5 898.45,1441.26C904.603,1453.87 911.186,1465.87 919.286,1477.37L923.938,1484.22L963.744,1549.66C956.949,1567.81 949.09,1585.69 941.756,1603.63Z" style="fill:rgb(34,48,67);fill-rule:nonzero;"/>
        <path d="M941.756,1603.63C976.194,1564.07 1003.61,1519.24 1035.47,1477.66C1053.75,1453.81 1074.6,1431.88 1094.21,1409.14C1118.1,1381.41 1141.17,1352.99 1165.89,1325.97C1152.94,1353.4 1142.67,1382.52 1131.12,1410.6C1108.37,1434.4 1079.21,1487.16 1060.25,1516.06C1030.25,1561.77 986.587,1619.46 963.593,1667.01C959.104,1676.29 958.433,1685.76 957.562,1695.89C951.277,1716.43 947.706,1738.14 943.35,1759.18L918.43,1883.34C898.997,1977.2 876.215,2070.38 857.102,2164.26C845.801,2172.09 834.434,2179.83 823,2187.46C827.4,2149.34 837.361,2110.54 844.004,2072.63C863.311,1965.1 883.503,1857.75 904.583,1750.56C914.903,1698.32 931.19,1632.06 935.161,1580.28C915.928,1540.62 889.868,1503.51 866.439,1466.19C860.89,1482.95 853.174,1501.23 850.858,1518.68C845.293,1560.62 860.458,1625.17 852.991,1666.19C845.374,1637.82 823.119,1550.82 822.853,1525.64C822.66,1507.38 826.189,1488.18 828.23,1470.03C831.979,1436.67 835.599,1403.48 836.887,1369.91C856.65,1382 883.649,1435.5 898.45,1441.26C904.603,1453.87 911.186,1465.87 919.286,1477.37L923.938,1484.22L963.744,1549.66C956.949,1567.81 949.09,1585.69 941.756,1603.63Z" style="fill:rgb(52,71,90);fill-rule:nonzero;"/>
        <path d="M696.575,1857.92C708.014,1824.02 723.174,1790.52 736.625,1757.32C750.493,1723.07 763.307,1686.64 780.665,1654C776.596,1675.84 774.629,1698.37 771.847,1720.42L797.062,1661.83C798.321,1675.18 795.6,1688.42 796.918,1701.71C804.174,1774.98 818.782,1849.4 818.921,1923.15C819.001,1965.68 812.973,2008.69 809.2,2051.04C807.589,2069.11 807.643,2100.73 801.458,2116.62C796.703,2096.22 800.02,2065.18 800.01,2043.51C799.991,1989.05 801.141,1933.47 797.735,1879.13C777.744,1954.42 761.283,2030.99 745.453,2107.25C746.656,2064.87 750.241,2022.57 752.545,1980.24C754.958,1932.9 756.942,1885.54 758.496,1838.16C738.88,1899.81 725.065,1964.24 710.953,2027.33C704.927,2054.27 699.892,2082.02 692.269,2108.54C686.848,2127.41 679.543,2146.02 672.978,2164.51C666.69,2182.22 616.504,2318.01 617.813,2324.25C621.178,2325.08 624.283,2325.5 627.739,2325.82C615.943,2326.8 603.595,2326.55 591.984,2328.63C594.318,2327.49 595.377,2326.55 596.976,2324.51C599.563,2306.76 598.403,2287.48 598.633,2269.52C598.877,2250.35 600.017,2230.98 599.514,2211.82C598.789,2184.28 592.341,2157.17 591.674,2129.36C591.403,2118.07 594.555,2095.61 589.28,2086.16C596.788,2062.21 604.818,2038.44 613.37,2014.85C621.922,1991.26 630.988,1967.86 640.567,1944.67C650.146,1921.47 660.229,1898.5 670.817,1875.75C681.405,1852.99 692.488,1830.48 704.065,1808.22C700.909,1824.63 698.935,1841.37 696.575,1857.92Z" style="fill:rgb(79,110,120);fill-rule:nonzero;"/>
    </g>
    <defs>
        <linearGradient id="_Linear1" x1="0" y1="0" x2="1" y2="0" gradientUnits="userSpaceOnUse" gradientTransform="matrix(-31.7778,-259.549,259.549,-31.7778,1652.71,806.725)"><stop offset="0" style="stop-color:rgb(21,100,127);stop-opacity:1"/><stop offset="1" style="stop-color:rgb(9,120,141);stop-opacity:1"/></linearGradient>
        <linearGradient id="_Linear2" x1="0" y1="0" x2="1" y2="0" gradientUnits="userSpaceOnUse" gradientTransform="matrix(-51.8853,-417.029,417.029,-51.8853,1897.31,1213.26)"><stop offset="0" style="stop-color:rgb(1,155,153);stop-opacity:1"/><stop offset="1" style="stop-color:rgb(37,187,173);stop-opacity:1"/></linearGradient>
    </defs>
</svg>
