<?xml version="1.0" encoding="UTF-8" standalone="no"?>
<!DOCTYPE svg PUBLIC "-//W3C//DTD SVG 1.1//EN" "http://www.w3.org/Graphics/SVG/1.1/DTD/svg11.dtd">
<svg width="100%" height="100%" viewBox="0 0 335 220" version="1.1" xmlns="http://www.w3.org/2000/svg" xmlns:xlink="http://www.w3.org/1999/xlink" xml:space="preserve" xmlns:serif="http://www.serif.com/" style="fill-rule:evenodd;clip-rule:evenodd;stroke-miterlimit:10;">
    <g id="bible_1" transform="matrix(1,0,0,1,-27,-68)">
        <g>
            <path d="M345,115.2C276.9,90.2 222.3,113.8 222.3,113.8C166.4,80.2 102.9,106.6 102.9,106.6L39.5,249.2C37.8,253 41.7,257 45.6,255.3C80.7,239.8 123.2,246.2 146.2,253.9C146.2,253.9 158.5,267.1 179.3,255.6C216.9,243.6 266.2,266.1 288.1,276.7C293.8,279.5 300.7,276.6 302.7,270.5L350.3,126.3C351.8,121.8 349.4,116.9 345,115.2Z" style="fill:rgb(193,39,45);fill-rule:nonzero;"/>
            <path d="M149,247C149,247 156.9,260.6 178.9,247.9C200.9,235.2 162.8,226.1 162.8,226.1L149,233L149,247Z" style="fill:rgb(155,35,44);fill-rule:nonzero;"/>
            <path d="M336.8,107.5L324.3,118.9C267,103.7 223,121.4 223,121.4C170.5,91.4 110.6,114.4 110.6,114.4L60.2,219.9L51.9,223.8L36.3,232.2L45.5,250.7C81.7,229.8 126,239.2 149.7,247C150.5,238.4 157.6,235 157.6,235C168.6,233.4 175.5,241.3 179.3,247.9C225.7,233.2 294.7,270.5 294.7,270.5L346,126L336.8,107.5Z" style="fill:rgb(204,204,204);fill-rule:nonzero;"/>
            <path d="M208.3,226.8L211.7,244.8L193.1,268.1L197.2,243.5L202.4,244.5L200.4,226.1L208.3,226.8Z" style="fill-opacity:0.05;fill-rule:nonzero;"/>
            <path d="M213.9,102.8L157.5,235C157.5,235 88.4,201.9 36.2,232.1L101.4,95.7C101.4,95.8 161.3,72.8 213.9,102.8Z" style="fill:rgb(239,239,239);fill-rule:nonzero;"/>
            <path d="M213.9,102.8C213.9,102.8 269.4,80.5 336.9,107.4L285.4,252C285.4,252 202.7,207.3 157.5,235L213.9,102.8Z" style="fill:rgb(239,239,239);fill-rule:nonzero;"/>
            <path d="M193.1,183.6C193.1,183.6 230.3,172.5 285.4,193.5L274.2,226.8C274.2,226.8 200.4,206.4 180.8,216.2L193.1,183.6Z" style="fill:rgb(153,153,153);fill-opacity:0.64;fill-rule:nonzero;"/>
            <path d="M208.3,226.8C213.1,207.1 217,182.9 215,162.2C212.8,139.5 224.4,106.9 227.5,98.7C224.7,99.4 222.3,100 220.3,100.6C216.9,107.9 204.6,136.5 207.5,170.4C209.1,189.3 205,209.3 200.3,226.1C203,226.3 205.6,226.5 208.3,226.8Z" style="fill-opacity:0.05;fill-rule:nonzero;"/>
            <path d="M285.4,252L294.6,270.6" style="fill:none;fill-rule:nonzero;stroke:white;stroke-width:1px;"/>
            <path d="M112.5,221.6C138.3,225.9 157.5,235 157.5,235L213.9,102.8C198.1,93.8 181.6,89.5 166.3,88L112.5,221.6Z" style="fill:rgb(211,211,211);fill-rule:nonzero;"/>
            <path d="M217.7,101.5C217.7,101.5 200.7,133.8 204,173.1C207.3,212.4 186.1,256.4 186.1,266L191.1,261.4L193.1,268.2C193.1,268.2 215.8,208.9 211.5,164.9C208.9,138.8 224.8,99.5 224.8,99.5C224.8,99.5 219,98.1 217.7,101.5Z" style="fill:rgb(251,176,59);fill-rule:nonzero;"/>
            <path d="M285.6,123.5L264.5,124L269.9,109.9L259.3,110.6L254.4,124.3L236.4,124.8L233.7,133.1L251.3,133L237.6,171.2L246.2,172.1L261.1,133L281.5,132.9L285.6,123.5Z" style="fill:rgb(77,77,77);fill-rule:nonzero;"/>
        </g>
    </g>
    <g id="bible_2">
    </g>
    <g id="bible_3">
    </g>
    <g id="bible_4">
    </g>
    <g id="bible_5">
    </g>
    <g id="bible_6" transform="matrix(1,0,0,1,-27,-68)">
        <g>
            <path d="M345,115.2C276.9,90.2 222.3,113.8 222.3,113.8C166.4,80.2 102.9,106.6 102.9,106.6L39.5,249.2C37.8,253 41.7,257 45.6,255.3C80.7,239.8 123.2,246.2 146.2,253.9C146.2,253.9 158.5,267.1 179.3,255.6C216.9,243.6 266.2,266.1 288.1,276.7C293.8,279.5 300.7,276.6 302.7,270.5L350.3,126.3C351.8,121.8 349.4,116.9 345,115.2Z" style="fill:rgb(193,39,45);fill-rule:nonzero;"/>
            <path d="M149,247C149,247 156.9,260.6 178.9,247.9C200.9,235.2 162.8,226.1 162.8,226.1L149,233L149,247Z" style="fill:rgb(155,35,44);fill-rule:nonzero;"/>
            <path d="M336.8,107.5L324.3,118.9C267,103.7 223,121.4 223,121.4C170.5,91.4 110.6,114.4 110.6,114.4L60.2,219.9L51.9,223.8L36.3,232.2L45.5,250.7C81.7,229.8 126,239.2 149.7,247C150.5,238.4 157.6,235 157.6,235C168.6,233.4 175.5,241.3 179.3,247.9C225.7,233.2 294.7,270.5 294.7,270.5L346,126L336.8,107.5Z" style="fill:rgb(204,204,204);fill-rule:nonzero;"/>
            <path d="M208.3,226.8L211.7,244.8L193.1,268.1L197.2,243.5L202.4,244.5L200.4,226.1L208.3,226.8Z" style="fill-opacity:0.05;fill-rule:nonzero;"/>
            <path d="M213.9,102.8L157.5,235C157.5,235 88.4,201.9 36.2,232.1L101.4,95.7C101.4,95.8 161.3,72.8 213.9,102.8Z" style="fill:rgb(239,239,239);fill-rule:nonzero;"/>
            <path d="M213.9,102.8C213.9,102.8 269.4,80.5 336.9,107.4L285.4,252C285.4,252 202.7,207.3 157.5,235L213.9,102.8Z" style="fill:rgb(239,239,239);fill-rule:nonzero;"/>
            <path d="M193.1,183.6C193.1,183.6 230.3,172.5 285.4,193.5L274.2,226.8C274.2,226.8 200.4,206.4 180.8,216.2L193.1,183.6Z" style="fill:rgb(153,153,153);fill-opacity:0.64;fill-rule:nonzero;"/>
            <path d="M208.3,226.8C213.1,207.1 217,182.9 215,162.2C212.8,139.5 224.4,106.9 227.5,98.7C224.7,99.4 222.3,100 220.3,100.6C216.9,107.9 204.6,136.5 207.5,170.4C209.1,189.3 205,209.3 200.3,226.1C203,226.3 205.6,226.5 208.3,226.8Z" style="fill-opacity:0.05;fill-rule:nonzero;"/>
            <path d="M285.4,252L294.6,270.6" style="fill:none;fill-rule:nonzero;stroke:white;stroke-width:1px;"/>
            <path d="M112.5,221.6C138.3,225.9 157.5,235 157.5,235L213.9,102.8C198.1,93.8 181.6,89.5 166.3,88L112.5,221.6Z" style="fill:rgb(211,211,211);fill-rule:nonzero;"/>
            <path d="M217.7,101.5C217.7,101.5 200.7,133.8 204,173.1C207.3,212.4 186.1,256.4 186.1,266L191.1,261.4L193.1,268.2C193.1,268.2 215.8,208.9 211.5,164.9C208.9,138.8 224.8,99.5 224.8,99.5C224.8,99.5 219,98.1 217.7,101.5Z" style="fill:rgb(251,176,59);fill-rule:nonzero;"/>
            <path d="M285.6,123.5L264.5,124L269.9,109.9L259.3,110.6L254.4,124.3L236.4,124.8L233.7,133.1L251.3,133L237.6,171.2L246.2,172.1L261.1,133L281.5,132.9L285.6,123.5Z" style="fill:rgb(77,77,77);fill-rule:nonzero;"/>
        </g>
        <g>
            <path d="M345,115.2C276.9,90.2 222.3,113.8 222.3,113.8C166.4,80.2 102.9,106.6 102.9,106.6L39.5,249.2C37.8,253 41.7,257 45.6,255.3C80.7,239.8 123.2,246.2 146.2,253.9C146.2,253.9 158.5,267.1 179.3,255.6C216.9,243.6 266.2,266.1 288.1,276.7C293.8,279.5 300.7,276.6 302.7,270.5L350.3,126.3C351.8,121.8 349.4,116.9 345,115.2Z" style="fill:rgb(193,39,45);fill-rule:nonzero;"/>
            <path d="M149,247C149,247 156.9,260.6 178.9,247.9C200.9,235.2 162.8,226.1 162.8,226.1L149,233L149,247Z" style="fill:rgb(155,35,44);fill-rule:nonzero;"/>
            <path d="M336.8,107.5L324.3,118.9C267,103.7 223,121.4 223,121.4C170.5,91.4 110.6,114.4 110.6,114.4L60.2,219.9L51.9,223.8L36.3,232.2L45.5,250.7C81.7,229.8 126,239.2 149.7,247C150.5,238.4 157.6,235 157.6,235C168.6,233.4 175.5,241.3 179.3,247.9C225.7,233.2 294.7,270.5 294.7,270.5L346,126L336.8,107.5Z" style="fill:rgb(204,204,204);fill-rule:nonzero;"/>
            <path d="M208.3,226.8L211.7,244.8L193.1,268.1L197.2,243.5L202.4,244.5L200.4,226.1L208.3,226.8Z" style="fill-opacity:0.05;fill-rule:nonzero;"/>
            <path d="M213.9,102.8L157.5,235C157.5,235 88.4,201.9 36.2,232.1L101.4,95.7C101.4,95.8 161.3,72.8 213.9,102.8Z" style="fill:rgb(239,239,239);fill-rule:nonzero;"/>
            <path d="M213.9,102.8C213.9,102.8 269.4,80.5 336.9,107.4L285.4,252C285.4,252 202.7,207.3 157.5,235L213.9,102.8Z" style="fill:rgb(239,239,239);fill-rule:nonzero;"/>
            <path d="M193.1,183.6C193.1,183.6 230.3,172.5 285.4,193.5L274.2,226.8C274.2,226.8 200.4,206.4 180.8,216.2L193.1,183.6Z" style="fill:rgb(153,153,153);fill-opacity:0.64;fill-rule:nonzero;"/>
            <path d="M208.3,226.8C213.1,207.1 217,182.9 215,162.2C212.8,139.5 224.4,106.9 227.5,98.7C224.7,99.4 222.3,100 220.3,100.6C216.9,107.9 204.6,136.5 207.5,170.4C209.1,189.3 205,209.3 200.3,226.1C203,226.3 205.6,226.5 208.3,226.8Z" style="fill-opacity:0.05;fill-rule:nonzero;"/>
            <path d="M285.4,252L294.6,270.6" style="fill:none;fill-rule:nonzero;stroke:white;stroke-width:1px;"/>
            <path d="M112.5,221.6C138.3,225.9 157.5,235 157.5,235L213.9,102.8C198.1,93.8 181.6,89.5 166.3,88L112.5,221.6Z" style="fill:rgb(211,211,211);fill-rule:nonzero;"/>
            <path d="M217.7,101.5C217.7,101.5 200.7,133.8 204,173.1C207.3,212.4 186.1,256.4 186.1,266L191.1,261.4L193.1,268.2C193.1,268.2 215.8,208.9 211.5,164.9C208.9,138.8 224.8,99.5 224.8,99.5C224.8,99.5 219,98.1 217.7,101.5Z" style="fill:rgb(251,176,59);fill-rule:nonzero;"/>
            <path d="M285.6,123.5L264.5,124L269.9,109.9L259.3,110.6L254.4,124.3L236.4,124.8L233.7,133.1L251.3,133L237.6,171.2L246.2,172.1L261.1,133L281.5,132.9L285.6,123.5Z" style="fill:rgb(77,77,77);fill-rule:nonzero;"/>
        </g>
        <g>
            <path d="M345,115.2C276.9,90.2 222.3,113.8 222.3,113.8C166.4,80.2 102.9,106.6 102.9,106.6L39.5,249.2C37.8,253 41.7,257 45.6,255.3C80.7,239.8 123.2,246.2 146.2,253.9C146.2,253.9 158.5,267.1 179.3,255.6C216.9,243.6 266.2,266.1 288.1,276.7C293.8,279.5 300.7,276.6 302.7,270.5L350.3,126.3C351.8,121.8 349.4,116.9 345,115.2Z" style="fill:rgb(193,39,45);fill-rule:nonzero;"/>
            <path d="M149,247C149,247 156.9,260.6 178.9,247.9C200.9,235.2 162.8,226.1 162.8,226.1L149,233L149,247Z" style="fill:rgb(155,35,44);fill-rule:nonzero;"/>
            <path d="M336.8,107.5L324.3,118.9C267,103.7 223,121.4 223,121.4C170.5,91.4 110.6,114.4 110.6,114.4L60.2,219.9L51.9,223.8L36.3,232.2L45.5,250.7C81.7,229.8 126,239.2 149.7,247C150.5,238.4 157.6,235 157.6,235C168.6,233.4 175.5,241.3 179.3,247.9C225.7,233.2 294.7,270.5 294.7,270.5L346,126L336.8,107.5Z" style="fill:rgb(204,204,204);fill-rule:nonzero;"/>
            <path d="M208.3,226.8L211.7,244.8L193.1,268.1L197.2,243.5L202.4,244.5L200.4,226.1L208.3,226.8Z" style="fill-opacity:0.05;fill-rule:nonzero;"/>
            <path d="M213.9,102.8L157.5,235C157.5,235 88.4,201.9 36.2,232.1L101.4,95.7C101.4,95.8 161.3,72.8 213.9,102.8Z" style="fill:rgb(239,239,239);fill-rule:nonzero;"/>
            <path d="M213.9,102.8C213.9,102.8 269.4,80.5 336.9,107.4L285.4,252C285.4,252 202.7,207.3 157.5,235L213.9,102.8Z" style="fill:rgb(239,239,239);fill-rule:nonzero;"/>
            <path d="M193.1,183.6C193.1,183.6 230.3,172.5 285.4,193.5L274.2,226.8C274.2,226.8 200.4,206.4 180.8,216.2L193.1,183.6Z" style="fill:rgb(153,153,153);fill-opacity:0.64;fill-rule:nonzero;"/>
            <path d="M208.3,226.8C213.1,207.1 217,182.9 215,162.2C212.8,139.5 224.4,106.9 227.5,98.7C224.7,99.4 222.3,100 220.3,100.6C216.9,107.9 204.6,136.5 207.5,170.4C209.1,189.3 205,209.3 200.3,226.1C203,226.3 205.6,226.5 208.3,226.8Z" style="fill-opacity:0.05;fill-rule:nonzero;"/>
            <path d="M285.4,252L294.6,270.6" style="fill:none;fill-rule:nonzero;stroke:white;stroke-width:1px;"/>
            <path d="M112.5,221.6C138.3,225.9 157.5,235 157.5,235L213.9,102.8C198.1,93.8 181.6,89.5 166.3,88L112.5,221.6Z" style="fill:rgb(211,211,211);fill-rule:nonzero;"/>
            <path d="M217.7,101.5C217.7,101.5 200.7,133.8 204,173.1C207.3,212.4 186.1,256.4 186.1,266L191.1,261.4L193.1,268.2C193.1,268.2 215.8,208.9 211.5,164.9C208.9,138.8 224.8,99.5 224.8,99.5C224.8,99.5 219,98.1 217.7,101.5Z" style="fill:rgb(251,176,59);fill-rule:nonzero;"/>
            <path d="M285.6,123.5L264.5,124L269.9,109.9L259.3,110.6L254.4,124.3L236.4,124.8L233.7,133.1L251.3,133L237.6,171.2L246.2,172.1L261.1,133L281.5,132.9L285.6,123.5Z" style="fill:rgb(77,77,77);fill-rule:nonzero;"/>
        </g>
    </g>
</svg>
