<svg xmlns="http://www.w3.org/2000/svg" xmlns:xlink="http://www.w3.org/1999/xlink" width="140" zoomAndPan="magnify" viewBox="0 0 104.88 104.999996" height="140" preserveAspectRatio="xMidYMid meet" version="1.0"><defs><clipPath id="a79cdc7444"><path d="M 18.410156 13 L 86.582031 13 L 86.582031 94.410156 L 18.410156 94.410156 Z M 18.410156 13 " clip-rule="nonzero"/></clipPath><clipPath id="e10a295d71"><path d="M 40 10.507812 L 63 10.507812 L 63 56 L 40 56 Z M 40 10.507812 " clip-rule="nonzero"/></clipPath></defs><g clip-path="url(#a79cdc7444)"><path fill="#38b6ff" d="M 62.992188 57.859375 C 61.835938 58 60.082031 57.71875 57.730469 57.023438 C 46.390625 53.777344 37.964844 48.472656 32.460938 41.117188 C 27.359375 35.414062 23.953125 27.089844 24.667969 13.613281 C 17.472656 23.925781 18.507812 34.109375 27.785156 44.144531 C 25.09375 42.515625 22.546875 39.832031 20.136719 36.105469 C 19.953125 45.089844 23.925781 51.214844 32.054688 54.476562 C 28.042969 54.1875 24.101562 52.054688 20.253906 48.074219 C 23.390625 56.898438 28.851562 61.328125 36.625 61.363281 C 33.035156 62.707031 28.144531 61.867188 21.933594 58.832031 C 29.824219 71.875 35.867188 66.886719 45.5 66.585938 C 39.3125 69.453125 34.640625 71.980469 30.238281 69.386719 C 34.75 75.285156 38.582031 75.171875 42.105469 73.484375 C 42.46875 73.3125 42.835938 73.121094 43.195312 72.914062 C 49.101562 66.703125 55.199219 64.875 61.488281 67.433594 C 58.53125 66.878906 55.648438 67.109375 52.84375 68.128906 C 42.675781 72.9375 45.121094 84.011719 18.410156 80.046875 C 23.527344 87.875 41.449219 89.4375 54.578125 77.246094 C 52.605469 80 40.046875 91.050781 31.636719 94.015625 C 73.511719 96.96875 56.023438 68.5 86.34375 57.527344 C 79.171875 56.980469 70.597656 49.746094 62.988281 57.847656 Z M 62.992188 57.859375 " fill-opacity="1" fill-rule="evenodd"/></g><g clip-path="url(#e10a295d71)"><path fill="#5ce1e6" d="M 56.425781 54.488281 C 59.25 55.324219 61.355469 55.660156 62.746094 55.492188 C 64.101562 39.804688 45.851562 37.894531 54.296875 10.640625 C 45.644531 21.859375 43.886719 32.359375 49.027344 42.148438 C 45.207031 38.328125 43.460938 33.507812 43.796875 27.683594 C 40.070312 34.625 40.210938 39.449219 42.324219 43.277344 C 44.332031 45.976562 46.542969 48.269531 48.964844 50.164062 C 51.265625 51.964844 53.75 53.40625 56.425781 54.488281 Z M 56.425781 54.488281 " fill-opacity="1" fill-rule="evenodd"/></g></svg>