<?xml version="1.0" encoding="UTF-8" standalone="no"?>
<!DOCTYPE svg PUBLIC "-//W3C//DTD SVG 1.1//EN" "http://www.w3.org/Graphics/SVG/1.1/DTD/svg11.dtd">
<svg width="100%" height="100%" viewBox="0 0 5000 5000" version="1.1" xmlns="http://www.w3.org/2000/svg" xmlns:xlink="http://www.w3.org/1999/xlink" xml:space="preserve" xmlns:serif="http://www.serif.com/" style="fill-rule:evenodd;clip-rule:evenodd;stroke-linejoin:round;stroke-miterlimit:2;">
    <path d="M3343.02,2378.48C3343.02,2378.48 3346.92,2337.76 3363.49,2300.94C3389.15,2243.9 3424.47,2148.98 3574.72,2107.9C3574.72,2107.9 3415.1,2162.39 3364.96,2379.09C3364.96,2379.09 3522.23,2388.67 3582.14,2222.11C3642.04,2055.56 3664.62,2054.63 3664.62,2054.63C3287.99,2063.32 3322.01,2358.15 3343.02,2378.48" style="fill:rgb(30,56,97);fill-rule:nonzero;"/>
    <path d="M1601.8,1366.81C1447.61,1683.52 1707.2,1781.61 1733.1,1772.86C1733.1,1772.86 1700.93,1752.16 1677.43,1722.61C1641.03,1676.85 1577.29,1606.81 1607.53,1464.35C1607.53,1464.35 1584.41,1620.34 1743,1754.89C1743,1754.89 1818.36,1628.3 1705.63,1507.14C1592.89,1385.97 1601.8,1366.81 1601.8,1366.81" style="fill:rgb(30,56,97);fill-rule:nonzero;"/>
    <path d="M1632,2368.43C1632,2368.43 1630.05,2327.57 1615.26,2289.99C1592.36,2231.8 1561.61,2135.3 1413.5,2087.08C1413.5,2087.08 1570.33,2149.13 1610.06,2367.98C1610.06,2367.98 1452.51,2370.04 1400.63,2200.81C1348.75,2031.58 1326.25,2029.57 1326.25,2029.57C1702.03,2056.26 1653.96,2349.13 1632,2368.43" style="fill:rgb(30,56,97);fill-rule:nonzero;"/>
    <path d="M2543.35,1760.13C2543.35,1760.13 2486.88,1688.38 2456.84,1603.4C2410.33,1471.8 2321.02,1264.12 2500.18,966.18C2500.18,966.18 2326.56,1300.2 2579.7,1727.29C2579.7,1727.29 2848.32,1500.29 2688.24,1139.1C2528.16,777.91 2563.17,741.609 2563.17,741.609C1968.66,1336.27 2478.09,1759.71 2543.35,1760.13" style="fill:rgb(30,56,97);fill-rule:nonzero;"/>
    <path d="M3421.06,1379.46C3559.93,1703.17 3295.96,1788.74 3270.51,1778.76C3270.51,1778.76 3303.63,1759.62 3328.51,1731.23C3367.06,1687.26 3434.07,1620.35 3410.67,1476.61C3410.67,1476.61 3426.31,1633.53 3261.47,1760.33C3261.47,1760.33 3192.24,1630.29 3310.64,1514.65C3429.04,1399.02 3421.06,1379.46 3421.06,1379.46" style="fill:rgb(30,56,97);fill-rule:nonzero;"/>
    <path d="M3115.2,2140.32C3115.2,2140.32 3119.11,2099.59 3135.67,2062.77C3161.33,2005.74 3196.66,1910.81 3346.9,1869.73C3346.9,1869.73 3187.29,1924.22 3137.14,2140.92C3137.14,2140.92 3294.41,2150.5 3354.32,1983.95C3414.22,1817.39 3436.8,1816.46 3436.8,1816.46C3060.17,1825.16 3094.19,2119.99 3115.2,2140.32" style="fill:rgb(30,56,97);fill-rule:nonzero;"/>
    <path d="M2703.37,1967.31C2703.37,1967.31 2737.33,1944.5 2761.83,1912.4C2799.78,1862.69 2866.45,1786.45 2831.08,1634.76C2831.08,1634.76 2859.12,1801.07 2692.4,1948.31C2692.4,1948.31 2609.12,1814.55 2727.1,1682.59C2845.07,1550.64 2835.14,1530.34 2835.14,1530.34C3006.74,1865.72 2731.26,1976.12 2703.37,1967.31" style="fill:rgb(30,56,97);fill-rule:nonzero;"/>
    <path d="M2947.48,1513.81C2947.48,1513.81 2966.68,1477.68 2973.16,1437.82C2983.2,1376.1 3006.06,1277.43 2903.37,1160.32C2903.37,1160.32 3006.49,1293.78 2928.84,1502.22C2928.84,1502.22 2792.35,1423.5 2834.21,1251.52C2876.06,1079.53 2857.74,1066.31 2857.74,1066.31C3167.15,1281.22 2976.22,1508.43 2947.48,1513.81" style="fill:rgb(30,56,97);fill-rule:nonzero;"/>
    <path d="M2936.67,2751.28C2936.67,2751.28 2952.36,2789.06 2979,2819.4C3020.27,2866.39 3081.91,2946.76 3237.59,2941.93C3237.59,2941.93 3069.01,2936.7 2957.47,2744.26C2957.47,2744.26 3105,2688.94 3211.16,2830.57C3317.31,2972.2 3339.17,2966.47 3339.17,2966.47C2976.58,3068.71 2922.55,2776.88 2936.67,2751.28" style="fill:rgb(30,56,97);fill-rule:nonzero;"/>
    <path d="M1870.94,2141.42C1870.94,2141.42 1868.99,2100.56 1854.2,2062.99C1831.3,2004.79 1800.55,1908.29 1652.44,1860.07C1652.44,1860.07 1809.27,1922.13 1849,2140.98C1849,2140.98 1691.45,2143.03 1639.57,1973.8C1587.7,1804.58 1565.19,1802.57 1565.19,1802.57C1940.97,1829.25 1892.9,2122.12 1870.94,2141.42" style="fill:rgb(30,56,97);fill-rule:nonzero;"/>
    <path d="M2290.57,1988.3C2290.57,1988.3 2257.74,1963.89 2234.8,1930.66C2199.27,1879.19 2136.32,1799.85 2178.9,1650.02C2178.9,1650.02 2142.95,1814.8 2302.44,1969.84C2302.44,1969.84 2392.01,1840.22 2280.48,1702.77C2168.95,1565.33 2179.84,1545.53 2179.84,1545.53C1992.4,1872.32 2262.3,1995.76 2290.57,1988.3" style="fill:rgb(30,56,97);fill-rule:nonzero;"/>
    <path d="M2068.41,1523.65C2068.41,1523.65 2050.97,1486.64 2046.4,1446.52C2039.32,1384.39 2021.2,1284.74 2129.37,1172.67C2129.37,1172.67 2019.99,1301.05 2087.58,1512.96C2087.58,1512.96 2227.68,1440.86 2194.1,1267.07C2160.51,1093.28 2179.45,1080.95 2179.45,1080.95C1860.11,1280.82 2039.96,1516.9 2068.41,1523.65" style="fill:rgb(30,56,97);fill-rule:nonzero;"/>
    <path d="M2020.06,2760.22C2020.06,2760.22 2002.59,2797.21 1974.53,2826.24C1931.06,2871.2 1865.65,2948.54 1710.38,2936.28C1710.38,2936.28 1879.01,2939.1 1999.63,2752.22C1999.63,2752.22 1854.91,2689.91 1742.11,2826.3C1629.3,2962.7 1607.75,2955.93 1607.75,2955.93C1965.03,3075.38 2032.95,2786.47 2020.06,2760.22" style="fill:rgb(30,56,97);fill-rule:nonzero;"/>
    <path d="M3059.29,2016.55C2565.4,2027.95 2610.01,2414.58 2637.56,2441.24C2637.56,2441.24 2642.68,2387.83 2664.41,2339.55C2698.05,2264.76 2744.38,2140.28 2941.4,2086.4C2941.4,2086.4 2732.09,2157.86 2666.33,2442.03C2666.33,2442.03 2872.57,2454.59 2951.13,2236.18C3029.69,2017.77 3059.29,2016.55 3059.29,2016.55" style="fill:rgb(126,203,66);fill-rule:nonzero;"/>
    <path d="M3593.69,1663.38C3732.56,1987.1 3468.58,2072.67 3443.13,2062.69C3443.13,2062.69 3476.25,2043.55 3501.14,2015.16C3539.68,1971.19 3606.7,1904.28 3583.29,1760.54C3583.29,1760.54 3598.93,1917.45 3434.09,2044.26C3434.09,2044.26 3364.87,1914.22 3483.26,1798.58C3601.66,1682.95 3593.69,1663.38 3593.69,1663.38" style="fill:rgb(126,203,66);fill-rule:nonzero;"/>
    <path d="M3125.78,944.551C3407.47,1156.04 3221.23,1361.75 3194.19,1365.78C3194.19,1365.78 3213.37,1332.68 3220.8,1295.67C3232.31,1238.34 3257.08,1146.93 3165.17,1033.96C3165.17,1033.96 3256.92,1162.23 3177.17,1354.3C3177.17,1354.3 3052.36,1276.04 3097.4,1116.79C3142.44,957.539 3125.78,944.551 3125.78,944.551" style="fill:rgb(126,203,66);fill-rule:nonzero;"/>
    <path d="M2689.38,814.469C3037.15,758.539 3055.92,1035.4 3040.05,1057.66C3040.05,1057.66 3029.55,1020.88 3008.07,989.828C2974.79,941.75 2926.2,860.461 2781.08,848.191C2781.08,848.191 2937.09,871.199 3019.98,1061.94C3019.98,1061.94 2877,1097.44 2793.65,954.469C2710.3,811.488 2689.38,814.469 2689.38,814.469" style="fill:rgb(126,203,66);fill-rule:nonzero;"/>
    <path d="M3043.73,1862.59C3043.73,1862.59 3030.12,1824.01 3029.63,1783.63C3028.87,1721.1 3020.92,1620.13 3139.87,1519.57C3139.87,1519.57 3018.07,1636.24 3063.89,1853.89C3063.89,1853.89 3210.56,1796.32 3194.72,1620.03C3178.88,1443.74 3198.96,1433.39 3198.96,1433.39C2861.05,1599.94 3016.11,1853 3043.73,1862.59" style="fill:rgb(126,203,66);fill-rule:nonzero;"/>
    <path d="M3110.07,2667.44C3110.07,2667.44 3143.64,2670.31 3175.93,2662.35C3225.94,2650.02 3308.09,2635.48 3363.66,2519.85C3363.66,2519.85 3295.84,2641.08 3112.83,2649.57C3112.83,2649.57 3128.39,2520.73 3272.22,2496.9C3416.05,2473.07 3420.15,2454.91 3420.15,2454.91C3357.25,2758.76 3123.42,2687.48 3110.07,2667.44" style="fill:rgb(126,203,66);fill-rule:nonzero;"/>
    <path d="M2874.54,2753.79C2874.54,2753.79 2842.62,2764.59 2816.22,2784.81C2775.32,2816.13 2705.87,2862.34 2701.23,2990.55C2701.23,2990.55 2714.85,2852.3 2879.16,2771.27C2879.16,2771.27 2916.47,2895.56 2794.21,2974.98C2671.95,3054.39 2675.46,3072.67 2675.46,3072.67C2611.47,2769.05 2854.28,2740.77 2874.54,2753.79" style="fill:rgb(126,203,66);fill-rule:nonzero;"/>
    <path d="M1932.7,2020.47C2425.48,2055.47 2362.45,2439.52 2333.65,2464.83C2333.65,2464.83 2331.09,2411.24 2311.7,2361.97C2281.66,2285.66 2241.34,2159.11 2047.12,2095.88C2047.12,2095.88 2252.77,2177.26 2304.87,2464.25C2304.87,2464.25 2098.27,2466.94 2030.24,2245.02C1962.22,2023.1 1932.7,2020.47 1932.7,2020.47" style="fill:rgb(126,203,66);fill-rule:nonzero;"/>
    <path d="M1917.53,946.52C1626.05,1144.3 1802.25,1358.68 1829.07,1363.99C1829.07,1363.99 1811.49,1330.02 1805.83,1292.69C1797.07,1234.88 1776.7,1142.4 1873.91,1033.95C1873.91,1033.95 1776.14,1157.68 1846.61,1353.35C1846.61,1353.35 1975.02,1281.14 1937.64,1119.92C1900.26,958.691 1917.53,946.52 1917.53,946.52" style="fill:rgb(126,203,66);fill-rule:nonzero;"/>
    <path d="M2360.72,815.77C2013.33,757.461 1992.67,1034.19 2008.39,1056.55C2008.39,1056.55 2019.15,1019.85 2040.84,988.949C2074.44,941.09 2123.59,860.141 2268.78,848.859C2268.78,848.859 2112.62,870.801 2028.43,1060.97C2028.43,1060.97 2171.17,1097.45 2255.49,955.051C2339.82,812.648 2360.72,815.77 2360.72,815.77" style="fill:rgb(126,203,66);fill-rule:nonzero;"/>
    <path d="M1955.6,1867.43C1955.6,1867.43 1971.05,1829.54 1973.46,1789.24C1977.21,1726.81 1989.98,1626.34 1875.97,1520.21C1875.97,1520.21 1992.06,1642.56 1935.89,1857.78C1935.89,1857.78 1792.14,1793.27 1816.38,1617.93C1840.63,1442.6 1821.07,1431.3 1821.07,1431.3C2150.63,1613.82 1983.65,1859.17 1955.6,1867.43" style="fill:rgb(126,203,66);fill-rule:nonzero;"/>
    <path d="M2975.87,2528.55C2975.87,2528.55 2979.78,2487.83 2996.34,2451.01C3022,2393.97 3057.33,2299.05 3207.57,2257.97C3207.57,2257.97 3047.96,2312.46 2997.81,2529.16C2997.81,2529.16 3155.08,2538.74 3214.99,2372.18C3274.89,2205.63 3297.47,2204.7 3297.47,2204.7C2920.84,2213.39 2954.86,2508.22 2975.87,2528.55" style="fill:rgb(126,203,66);fill-rule:nonzero;"/>
    <path d="M1415.8,1642.17C1261.62,1958.87 1521.2,2056.96 1547.1,2048.21C1547.1,2048.21 1514.93,2027.51 1491.43,1997.97C1455.03,1952.2 1391.29,1882.16 1421.54,1739.7C1421.54,1739.7 1398.42,1895.7 1557.01,2030.24C1557.01,2030.24 1632.37,1903.65 1519.63,1782.49C1406.9,1661.33 1415.8,1642.17 1415.8,1642.17" style="fill:rgb(126,203,66);fill-rule:nonzero;"/>
    <path d="M1991.56,2535.88C1991.56,2535.88 1989.6,2495.01 1974.82,2457.44C1951.91,2399.25 1921.16,2302.74 1773.06,2254.52C1773.06,2254.52 1929.88,2316.58 1969.61,2535.43C1969.61,2535.43 1812.06,2537.48 1760.19,2368.26C1708.31,2199.03 1685.81,2197.02 1685.81,2197.02C2061.59,2223.71 2013.52,2516.57 1991.56,2535.88" style="fill:rgb(126,203,66);fill-rule:nonzero;"/>
    <path d="M1850.88,2668.19C1850.88,2668.19 1817.2,2669.46 1785.33,2659.96C1735.96,2645.26 1654.61,2626.8 1604.63,2508.65C1604.63,2508.65 1666.58,2632.99 1848.97,2650.21C1848.97,2650.21 1839.58,2520.77 1697.06,2490.09C1554.53,2459.41 1551.3,2441.08 1551.3,2441.08C1599.61,2747.6 1836.58,2687.57 1850.88,2668.19" style="fill:rgb(126,203,66);fill-rule:nonzero;"/>
    <path d="M2082.01,2765.7C2082.01,2765.7 2113.37,2778.01 2138.78,2799.47C2178.13,2832.71 2245.3,2882.19 2243.8,3010.47C2243.8,3010.47 2236.8,2871.73 2076.56,2782.93C2076.56,2782.93 2033.35,2905.31 2151.67,2990.47C2269.99,3075.64 2265.62,3093.73 2265.62,3093.73C2344.05,2793.51 2102.87,2753.66 2082.01,2765.7" style="fill:rgb(126,203,66);fill-rule:nonzero;"/>
    <path d="M2058.86,2672.09L2149.47,2645.47L2983.46,2653.38L3022.85,2623.82L3064.26,2605.1L3004.19,2672.09L2058.86,2672.09ZM2541.43,2096.68L2541.43,2605.1L2527.74,2556.39L2531.78,2107.81L2516.61,2086.64L2506.95,2064.39L2541.43,2096.68ZM2457.26,3697.18L2457.26,2751.85L2483.82,2842.46L2475.97,3676.45L2505.48,3715.84L2524.19,3757.19L2457.26,3697.18ZM2427.1,3824.15L2572.55,3810.38L2581.31,2715.41L3035.07,2715.41L3128.52,2561.79L2581.31,2561.79L2581.31,2101.97L2427.69,1989.7L2427.69,2561.79L1983.86,2561.79L1880.48,2715.41L2427.69,2715.41L2427.1,3824.15" style="fill:rgb(30,56,97);fill-rule:nonzero;"/>
    <path d="M3570.37,4013.65C3103.33,3796.12 2636.35,4094.07 2516.18,4180.68C2516,4180.8 2515.88,4180.92 2515.69,4181.04L2501.31,3873.27L2486.99,4181.04C2486.86,4180.92 2486.68,4180.8 2486.5,4180.68C2366.27,4094.07 1899.29,3796.12 1432.31,4013.65L1612.33,3731.55C1767.34,3632.74 2224.3,3571.44 2458.95,3763.17C2474.06,3775.43 2488.2,3788.78 2501.31,3803.23C2514.24,3788.96 2528.2,3775.79 2543.07,3763.65C2777.53,3571.31 3235.16,3632.61 3390.29,3731.55L3570.37,4013.65" style="fill:rgb(30,56,97);fill-rule:nonzero;"/>
    <path d="M2515.69,4181.04C2858.14,4024.35 3181.87,3953.79 3609.9,4124.49L3634.88,4172.11C3243.52,4029.03 2922.15,4024.35 2515.69,4181.04" style="fill:rgb(30,56,97);fill-rule:nonzero;"/>
    <path d="M2486.99,4181.04C2144.54,4024.35 1818.41,3953.79 1390.38,4124.49L1365.4,4172.11C1756.76,4029.03 2080.53,4024.35 2486.99,4181.04" style="fill:rgb(30,56,97);fill-rule:nonzero;"/>
    <path d="M2515.69,4181.04C2802.97,4022.83 3149.08,3877.29 3577.12,4047.99L3597.41,4088.42C3206.05,3945.35 2896.65,4024.92 2515.69,4181.04" style="fill:rgb(126,203,66);fill-rule:nonzero;"/>
    <path d="M2515.69,4181.04C2858.14,4024.35 3220.64,4040.96 3648.68,4211.66L3673.66,4259.28C3282.3,4116.21 2922.15,4024.35 2515.69,4181.04" style="fill:rgb(126,203,66);fill-rule:nonzero;"/>
    <path d="M2486.99,4181.04C2199.71,4022.83 1851.2,3877.29 1423.17,4047.99L1402.87,4088.42C1794.23,3945.35 2106.03,4024.92 2486.99,4181.04" style="fill:rgb(126,203,66);fill-rule:nonzero;"/>
    <path d="M2486.99,4181.04C2144.54,4024.35 1779.64,4040.96 1351.61,4211.66L1326.63,4259.28C1717.99,4116.21 2080.53,4024.35 2486.99,4181.04" style="fill:rgb(126,203,66);fill-rule:nonzero;"/>
    <g>
        <g>
            <clipPath id="_clip1">
                <path d="M1990.81,4831.2C1804.82,4831.2 1626.84,4786.29 1538.84,4730.17L1344.13,4425.15C1474.35,4485.8 1604.58,4509.39 1728.36,4509.39C2084.59,4509.39 2387.53,4314.05 2483.96,4244.55C2484.15,4244.42 2484.28,4244.29 2484.48,4244.16L2500.03,4576.94L2515.52,4244.16C2515.65,4244.29 2515.85,4244.42 2516.04,4244.55C2612.51,4314.04 2915.51,4509.39 3271.68,4509.39C3395.48,4509.39 3525.63,4485.81 3655.87,4425.15L3461.23,4730.17C3373.23,4786.26 3195.19,4831.17 3009.24,4831.18C2841.02,4831.19 2666.34,4794.44 2545.84,4695.98C2529.5,4682.72 2514.21,4668.28 2500.03,4652.67C2486.05,4668.09 2470.96,4682.33 2454.88,4695.45C2334.38,4794.31 2159.3,4831.2 1990.81,4831.2"/>
            </clipPath>
            <g clip-path="url(#_clip1)">
                <g>
                    <clipPath id="_clip2">
                        <path d="M1990.81,4831.2C1804.82,4831.2 1626.84,4786.29 1538.84,4730.17L1344.13,4425.15C1474.35,4485.8 1604.58,4509.39 1728.36,4509.39C2084.59,4509.39 2387.53,4314.05 2483.96,4244.55C2484.15,4244.42 2484.28,4244.29 2484.48,4244.16L2500.03,4576.94L2515.52,4244.16C2515.65,4244.29 2515.85,4244.42 2516.04,4244.55C2612.51,4314.04 2915.51,4509.39 3271.68,4509.39C3395.48,4509.39 3525.63,4485.81 3655.87,4425.15L3461.23,4730.17C3373.23,4786.26 3195.19,4831.17 3009.24,4831.18C2841.02,4831.19 2666.34,4794.44 2545.84,4695.98C2529.5,4682.72 2514.21,4668.28 2500.03,4652.67C2486.05,4668.09 2470.96,4682.33 2454.88,4695.45C2334.38,4794.31 2159.3,4831.2 1990.81,4831.2"/>
                    </clipPath>
                    <g clip-path="url(#_clip2)">
                        <rect x="1344.13" y="4244.16" width="2311.74" height="587.039" style="fill:url(#_Linear3);fill-rule:nonzero;"/>
                    </g>
                </g>
            </g>
        </g>
    </g>
    <defs>
        <linearGradient id="_Linear3" x1="0" y1="0" x2="1" y2="0" gradientUnits="userSpaceOnUse" gradientTransform="matrix(-2.55291e-08,-587.039,587.039,-2.55291e-08,2500,4831.2)"><stop offset="0" style="stop-color:rgb(254,254,254);stop-opacity:1"/><stop offset="0.13" style="stop-color:rgb(252,252,252);stop-opacity:1"/><stop offset="0.14" style="stop-color:rgb(252,251,251);stop-opacity:1"/><stop offset="0.16" style="stop-color:rgb(251,251,251);stop-opacity:1"/><stop offset="0.25" style="stop-color:rgb(247,247,247);stop-opacity:1"/><stop offset="0.28" style="stop-color:rgb(247,246,247);stop-opacity:1"/><stop offset="0.34" style="stop-color:rgb(245,244,244);stop-opacity:1"/><stop offset="0.38" style="stop-color:rgb(243,243,243);stop-opacity:1"/><stop offset="0.39" style="stop-color:rgb(243,242,242);stop-opacity:1"/><stop offset="0.42" style="stop-color:rgb(241,241,241);stop-opacity:1"/><stop offset="0.44" style="stop-color:rgb(241,240,240);stop-opacity:1"/><stop offset="0.45" style="stop-color:rgb(240,240,240);stop-opacity:1"/><stop offset="0.47" style="stop-color:rgb(240,239,240);stop-opacity:1"/><stop offset="0.5" style="stop-color:rgb(238,238,238);stop-opacity:1"/><stop offset="0.52" style="stop-color:rgb(238,237,237);stop-opacity:1"/><stop offset="0.53" style="stop-color:rgb(237,237,237);stop-opacity:1"/><stop offset="0.58" style="stop-color:rgb(235,235,235);stop-opacity:1"/><stop offset="0.61" style="stop-color:rgb(234,234,234);stop-opacity:1"/><stop offset="0.63" style="stop-color:rgb(234,233,233);stop-opacity:1"/><stop offset="0.64" style="stop-color:rgb(233,233,233);stop-opacity:1"/><stop offset="0.66" style="stop-color:rgb(233,232,232);stop-opacity:1"/><stop offset="0.72" style="stop-color:rgb(231,230,230);stop-opacity:1"/><stop offset="0.75" style="stop-color:rgb(229,229,229);stop-opacity:1"/><stop offset="0.77" style="stop-color:rgb(229,228,228);stop-opacity:1"/><stop offset="0.78" style="stop-color:rgb(228,228,228);stop-opacity:1"/><stop offset="0.8" style="stop-color:rgb(228,227,228);stop-opacity:1"/><stop offset="0.81" style="stop-color:rgb(227,227,227);stop-opacity:1"/><stop offset="0.84" style="stop-color:rgb(226,225,225);stop-opacity:1"/><stop offset="0.86" style="stop-color:rgb(225,225,225);stop-opacity:1"/><stop offset="0.88" style="stop-color:rgb(225,224,224);stop-opacity:1"/><stop offset="0.94" style="stop-color:rgb(222,222,222);stop-opacity:1"/><stop offset="0.95" style="stop-color:rgb(222,221,221);stop-opacity:1"/><stop offset="0.97" style="stop-color:rgb(221,221,221);stop-opacity:1"/><stop offset="0.98" style="stop-color:rgb(221,220,220);stop-opacity:1"/><stop offset="1" style="stop-color:rgb(220,220,220);stop-opacity:1"/></linearGradient>
    </defs>
</svg>
