<?xml version="1.0" encoding="UTF-8" standalone="no"?>
<!DOCTYPE svg PUBLIC "-//W3C//DTD SVG 1.1//EN" "http://www.w3.org/Graphics/SVG/1.1/DTD/svg11.dtd">
<svg width="100%" height="100%" viewBox="0 0 2400 1920" version="1.1" xmlns="http://www.w3.org/2000/svg" xmlns:xlink="http://www.w3.org/1999/xlink" xml:space="preserve" xmlns:serif="http://www.serif.com/" style="fill-rule:evenodd;clip-rule:evenodd;stroke-linejoin:round;stroke-miterlimit:2;">
    <g transform="matrix(1,0,0,1,-0.00072576,-0.000302225)">
        <path d="M877.809,1090.46C842.758,1094.58 808.008,1090.16 772.898,1079.71C753.012,1073.8 733.906,1066.16 714.797,1058.09C699.75,1051.77 683.93,1044.42 668.285,1039.82C661.117,1037.73 653.594,1041.08 650.371,1047.82C647.086,1054.51 649.176,1062.45 655.266,1066.81C711.215,1106.28 813.738,1165.69 889.395,1172.56C889.273,1178.06 890.824,1183.43 895.125,1187.85C903.367,1196.32 924.98,1200.09 942.297,1200.93C943.852,1205.76 946.953,1210 952.031,1212.81C963.734,1219.25 984.633,1221.05 1000.1,1220.33C1002.84,1222.54 1006.01,1224.33 1009.11,1225.64C1020.82,1230.6 1035.33,1230.78 1048.64,1229.29C1050.31,1231.14 1052.23,1232.69 1054.26,1234C1066.86,1241.94 1085.72,1240.81 1100.83,1238.31C1109.97,1243.8 1121.97,1246.96 1131.58,1247.98C1137.43,1248.57 1143.4,1249.77 1149.2,1250.72C1163.41,1253.05 1183.23,1256.04 1193.68,1243.56C1193.74,1243.44 1193.8,1243.38 1193.92,1243.32C1197.26,1243.8 1200.67,1244.09 1203.83,1244.21C1214.58,1244.57 1226.16,1242.66 1233.87,1234.48C1235.06,1233.17 1236.08,1231.79 1236.97,1230.36C1239.78,1230.66 1242.52,1230.84 1245.15,1230.96C1256.44,1231.32 1269.34,1229.59 1276.68,1220.09C1277.04,1220.15 1277.46,1220.21 1277.81,1220.27C1283.96,1221.34 1290.71,1221.64 1296.68,1219.85C1282.11,1239.8 1267.24,1259.56 1252.2,1279.09C1236.91,1298.97 1220.55,1319.15 1207.12,1340.29C1197.32,1355.69 1183.65,1379.52 1193.92,1397.61C1196.55,1402.21 1200.37,1405.79 1204.97,1408.3C1217.27,1415.05 1233.99,1419.88 1249.21,1420.42C1252.32,1424.84 1256.08,1428.96 1259.72,1432.07C1272.92,1443.29 1289.28,1447.59 1306,1446.87C1309.88,1451.59 1314.71,1455.77 1319.43,1458.76C1335.85,1468.91 1354.66,1468.61 1372.34,1463.18C1376.99,1467.65 1382.43,1471.54 1387.74,1474.04C1406.49,1482.94 1424.94,1478.16 1440.35,1466.94C1445.96,1469.74 1452.05,1471.83 1457.66,1472.79C1478.74,1476.31 1496.54,1466.94 1510.03,1452.13C1530.57,1456.73 1553.68,1453.92 1565.2,1436.54C1569.44,1436.72 1573.74,1436.43 1577.56,1435.71C1593.92,1432.48 1604.19,1421.68 1609.09,1407.29C1615.72,1405.85 1622.29,1403.4 1627.54,1400.24C1645.16,1389.85 1651.78,1372.77 1651.49,1354.26C1657.81,1352.47 1663.97,1350.08 1669.04,1347.21C1688.8,1336.29 1697.94,1318.5 1696.99,1297.6C1704.15,1292.88 1710.96,1286.85 1715.79,1280.82C1730.78,1262.25 1731.68,1241.41 1722.06,1221.82C1726,1216.93 1729.41,1211.49 1731.86,1206.48C1740.04,1189.4 1740.16,1171.79 1733.35,1155.31C1747.86,1141.39 1756.52,1121.15 1747.5,1101.39C1744.28,1094.34 1740.34,1087.89 1734.13,1083.06C1722.9,1074.34 1708.21,1074.16 1694.72,1074.81C1685.1,1075.29 1675.43,1076.37 1665.88,1077.44C1652.32,1078.93 1638.71,1080.55 1625.15,1082.04C1577.68,1087.29 1530.21,1092.25 1482.74,1096.97C1482.74,1096.91 1482.68,1096.85 1482.68,1096.79C1484.35,1096.25 1486.09,1095.77 1487.28,1095.41C1493.55,1093.56 1499.82,1091.83 1506.03,1089.74C1516.3,1086.28 1526.87,1080.55 1532.9,1071.59C1544.42,1069.08 1553.44,1061.91 1557.92,1051.23C1566.58,1047.41 1572.37,1040.18 1574.7,1031.05C1585.5,1026.15 1593.03,1019.82 1597.21,1008.95C1609.39,1004.3 1618.58,994.684 1621.21,982.203C1634.89,975.871 1644.56,962.977 1642.71,946.375C1642.23,941.957 1640.62,937.301 1638.23,932.582C1651.72,936.883 1667.43,937.898 1678.65,928.762C1687.37,921.715 1690.06,911.441 1689.4,901.059C1692.03,897.77 1694.18,894.191 1695.73,890.66C1700.27,880.328 1700.15,869.77 1696.69,859.91C1698.72,857.82 1700.57,855.609 1702.06,853.41C1711.49,839.789 1712.33,823.488 1708.75,807.961C1712.81,802.23 1716.63,796.078 1719.85,790.109C1726.12,778.469 1733.05,762.23 1725.59,749.691C1728.69,745.031 1731.44,740.129 1733.65,735.539C1741.35,719.352 1743.02,701.621 1732.75,689.262C1740.34,672.059 1742.31,649.191 1736.63,633.672C1735.38,630.262 1733.05,627.578 1730.18,625.852C1736.1,608.891 1739.08,590.922 1737.41,572.941C1736.87,566.789 1732.87,561.781 1726.9,559.93C1729.05,545.539 1726.3,530.73 1722.18,516.988C1720.57,511.801 1716.69,508.039 1711.61,506.719C1711.49,501.289 1710.6,495.801 1708.81,490.301C1707.91,487.5 1706.36,485.172 1704.27,483.379C1707.02,474.961 1709.17,466.781 1710.48,459.07C1711.61,452.211 1708.21,445.699 1701.88,442.77C1695.61,439.852 1688.39,441.461 1683.91,446.77C1678.3,453.398 1672.98,460.75 1667.97,467.852C1655.13,485.879 1643.31,504.809 1632.56,524.219C1622.59,542.191 1612.02,559.93 1601.33,577.48C1586.22,602.32 1570.64,626.922 1554.46,651.039C1539.17,673.91 1523.23,696.66 1506.09,718.16C1503.76,721.09 1501.25,724.129 1498.69,727.301C1497.73,721.98 1494.03,717.621 1488.77,715.77C1482.44,713.621 1475.76,715.648 1471.69,720.969C1458.26,738.641 1445.12,757.391 1433.12,776.078C1417.24,800.801 1408.04,829.699 1386.79,850.539C1370.72,866.238 1332.33,911.211 1307.91,907.211C1281.52,902.852 1253.33,864.75 1235.36,846.719C1209.44,820.738 1163.11,807.551 1134.51,837.039C1123.4,848.449 1115.64,863.141 1118.98,879.441C1119.7,882.961 1121.13,886.719 1122.98,890.191C1120.42,901.23 1120.65,914.012 1123.1,924.223C1124.42,929.535 1128.12,933.477 1133.31,935.148C1138.51,936.762 1143.82,935.688 1147.94,932.047C1148.9,931.148 1150.51,929.836 1152.42,928.402C1160.36,943.629 1164.84,958.078 1168.42,976.051C1169.74,982.859 1170.99,989.547 1172.36,996.234C1136.72,1016.95 1101.19,1036 1061.12,1047.35C1008.94,1062.16 942.18,1067.59 888.078,1062.1C882.109,1061.5 876.676,1064.25 873.57,1069.38C870.465,1074.57 870.645,1080.66 873.988,1085.62C875.121,1087.35 876.375,1088.96 877.809,1090.46ZM1137.85,920.699C1144,915.27 1158.57,904.281 1167.05,905.41C1167.05,905.41 1163.05,907.211 1159.41,909.949C1195.47,968.887 1173.86,997.609 1217.63,1072.31C1217.63,1072.31 1195.53,1046.21 1182.57,1007.82C1162.93,1019.28 1116.47,1047.46 1065.24,1061.98C1014.01,1076.48 944.27,1082.99 886.586,1077.2C886.586,1077.2 896.977,1092.73 922.949,1096.25C807.59,1132.38 712.945,1068.78 663.984,1054.39C723.336,1096.31 838.996,1162.47 910.531,1157.87C910.531,1157.87 900.918,1172.02 905.992,1177.28C911.008,1182.47 939.133,1187.37 957.523,1185.64C957.523,1185.64 953.582,1196.32 959.375,1199.55C965.168,1202.71 985.23,1207.25 1006.37,1204.57C1006.37,1204.57 1012.28,1220.57 1057.24,1212.75C1057.24,1212.75 1055.21,1231.86 1104.41,1222.24C1104.41,1222.24 1113.73,1230.84 1133.13,1232.87C1152.6,1234.9 1187.11,1245.82 1183.59,1225.7C1183.59,1225.7 1229.27,1238.9 1225.45,1213.05C1225.45,1213.05 1272.98,1224.27 1265.45,1201.28C1265.45,1201.28 1298.41,1213.64 1296.86,1198.3C1296.86,1198.3 1301.16,1198.24 1306.48,1198.36C1292.14,1185.28 1272.44,1151.78 1272.44,1151.78C1298.47,1183.73 1321.82,1208.09 1351.26,1235.8C1351.26,1235.8 1331.37,1223.38 1319.85,1213.64C1312.15,1224.45 1291.91,1252.34 1264.2,1288.34C1228.37,1334.91 1189.38,1382.5 1212.25,1394.98C1235.12,1407.52 1257.87,1405.02 1257.87,1405.02C1257.87,1405.02 1270.47,1437.56 1313.58,1430.87C1313.58,1430.87 1329.28,1465.68 1376.99,1445.32C1376.99,1445.32 1402.13,1484.19 1439.15,1448.07C1439.15,1448.07 1473.25,1478.28 1504.6,1434.75C1504.6,1434.75 1548.36,1450.75 1556.13,1419.77C1556.13,1419.77 1591.66,1431.23 1596.79,1393.49C1596.79,1393.49 1645.22,1393.91 1634.94,1341.9C1634.94,1341.9 1690.6,1338.32 1680.74,1289.41C1680.74,1289.41 1735.02,1264.52 1703.14,1219.67C1703.14,1219.67 1739.26,1190.06 1714.12,1151.18C1714.12,1151.18 1744.69,1131.78 1733.71,1107.71C1722.72,1083.59 1710.96,1087.77 1626.82,1097.09C1557.68,1104.73 1499.04,1110.58 1480.29,1112.43C1487.1,1119.48 1496.06,1124.49 1496.06,1124.49C1482.14,1119.72 1462.38,1106.52 1467.93,1088.25C1469.37,1083.53 1483.88,1081.14 1501.19,1075.35C1509.49,1072.55 1521.08,1066.93 1522.69,1057.32C1537.74,1057.86 1544.36,1048.72 1545.62,1038.93C1556.66,1037.79 1561.08,1030.27 1560.61,1020.24C1578.22,1014.21 1582.82,1008.59 1584.97,996.473C1584.97,996.473 1610.05,993.07 1606.46,970.918C1606.46,970.918 1629.75,967.336 1627.66,948.047C1625.51,928.762 1586.52,897.648 1586.52,897.648C1586.52,897.648 1606.82,898.961 1627.72,911.379C1648.68,923.805 1680.21,927.984 1673.4,895.738C1673.4,895.738 1694.42,879.68 1677.28,855.262C1677.28,855.262 1704.87,844.211 1692.21,804.922C1692.21,804.922 1731.68,753.148 1703.55,753.75C1703.55,753.75 1744.52,707.23 1712.87,693.141C1723.08,681.199 1728.04,654.27 1722.42,638.859C1709.88,641.488 1698.66,654.75 1698.66,654.75C1698.66,654.75 1726.24,617.309 1722.3,574.379C1711.31,587.391 1704.21,603.398 1689.4,617.25C1690,577.238 1725.11,579.211 1707.67,521.352C1694.66,542.852 1689.82,557.301 1672.68,578.73C1681.7,551.75 1702.84,521.109 1694.42,494.961C1689.1,499.078 1677.58,525.469 1659.79,542.852C1659.79,542.852 1689.16,494.422 1695.55,456.57C1695.55,456.57 1671.73,484.809 1645.81,531.559C1619.96,578.32 1525.49,735.422 1474.56,773.09C1474.56,773.09 1483.16,759.66 1483.76,730.102C1483.76,730.102 1463.34,757.031 1445.9,784.262C1428.41,811.488 1421.36,837.941 1397.36,861.41C1373.41,884.871 1338.06,927.508 1305.46,922.133C1272.8,916.82 1243.36,876.16 1224.61,857.41C1205.86,838.66 1168.36,823.91 1145.37,847.609C1122.39,871.262 1139.7,887.441 1139.7,887.441C1139.7,887.441 1133.49,902.43 1137.85,920.699"/>
    </g>
</svg>
