<?xml version="1.0" encoding="UTF-8" standalone="no"?>
<!DOCTYPE svg PUBLIC "-//W3C//DTD SVG 1.1//EN" "http://www.w3.org/Graphics/SVG/1.1/DTD/svg11.dtd">
<svg width="100%" height="100%" viewBox="0 0 600 608" version="1.1" xmlns="http://www.w3.org/2000/svg" xmlns:xlink="http://www.w3.org/1999/xlink" xml:space="preserve" xmlns:serif="http://www.serif.com/" style="fill-rule:evenodd;clip-rule:evenodd;stroke-linejoin:round;stroke-miterlimit:2;">
    <g transform="matrix(1,0,0,1,-766,-621)">
        <path d="M1224.65,778.694L1260.04,782.571L1235.8,748.151L1224.65,778.694Z" style="fill:rgb(109,203,237);"/>
        <path d="M1162.35,722.752L1207.69,831.534L1224.65,778.694L1235.8,748.151L1234.51,747.691L1162.35,722.752Z" style="fill:rgb(51,187,232);"/>
        <path d="M1246.95,939.15L1207.69,831.534L1162.6,721.978L1102.29,814.022L1246.95,939.15Z" style="fill:rgb(109,203,237);"/>
        <path d="M1051.06,1021.6L880.957,1160.2L947.855,1151.96L1051.06,1021.6Z" style="fill:rgb(51,187,232);"/>
        <path d="M1051.11,1021.56L1051.78,1021.01L1014.75,1173.77L1014.72,1173.8L1014.74,1173.78L906.65,1203.35L947.855,1151.96L1051.07,1021.6L1051.11,1021.56ZM1246.95,939.15L1051.71,1021.31L1014.75,1173.76L1246.95,939.15Z" style="fill:rgb(139,212,240);"/>
        <path d="M1122.77,1064.63L1014.72,1173.8L1161.15,1069.55L1122.77,1064.63Z" style="fill:rgb(51,187,232);"/>
        <path d="M1161.15,1069.55L1183.45,1072.94L1246.95,939.15L1122.77,1064.63L1161.15,1069.55Z" style="fill:rgb(82,209,234);"/>
        <path d="M1051.11,1021.56L1246.95,939.15L1051.11,1021.56Z" style="fill:rgb(82,209,234);"/>
        <path d="M963.853,895.521L1051.11,1021.56L1246.96,939.15L980.344,708.545L963.853,895.521Z" style="fill:rgb(51,187,232);"/>
        <path d="M996.888,722.853L1102.29,814.018L1030.27,684.164L996.888,722.853Z" style="fill:rgb(82,195,234);"/>
        <path d="M1030.27,684.164L884.833,646.838L895.456,689.176L980.344,708.545L996.888,722.853L1030.27,684.164Z" style="fill:rgb(168,222,244);"/>
        <path d="M980.21,708.675L980.344,708.545L803.396,668.167L857.205,826.201L963.853,895.521L980.21,708.675Z" style="fill:rgb(139,212,240);"/>
    </g>
</svg>
