<?xml version="1.0" encoding="UTF-8" standalone="no"?>
<!DOCTYPE svg PUBLIC "-//W3C//DTD SVG 1.1//EN" "http://www.w3.org/Graphics/SVG/1.1/DTD/svg11.dtd">
<svg width="100%" height="100%" viewBox="0 0 16667 16667" version="1.1" xmlns="http://www.w3.org/2000/svg" xmlns:xlink="http://www.w3.org/1999/xlink" xml:space="preserve" xmlns:serif="http://www.serif.com/" style="fill-rule:evenodd;clip-rule:evenodd;stroke-linejoin:round;stroke-miterlimit:2;">
    <g transform="matrix(4.16667,0,0,4.16667,0,0)">
        <path d="M1611.06,2822.84C1594.98,2767.19 1577.48,2728.04 1543.24,2682.18C1499.06,2622.99 1491.5,2560.04 1474.57,2489.57C1462.04,2437.39 1432.91,2365.49 1382.08,2341.3C1346.64,2324.44 1292.96,2330 1287.15,2372.94C1281.07,2417.83 1282.23,2469.49 1295.11,2512.03C1302.85,2537.57 1318.78,2562.95 1323.84,2588.98C1331.24,2627.02 1312.6,2656.01 1310.26,2691.76C1303.7,2792.11 1346.06,2867.41 1395.85,2950.13C1411.69,2940.01 1437.16,2952.86 1468.94,2965.99C1502.73,2979.94 1528.76,3003.36 1565.79,3003.31C1578.44,3003.29 1614.41,3010.37 1624.73,2999.23C1631.19,2992.25 1627.08,2969.04 1627.05,2960.08C1626.89,2910.82 1624.73,2870.18 1611.06,2822.84Z" style="fill:rgb(26,53,99);fill-rule:nonzero;"/>
        <path d="M1932.26,2397.73C1893.13,2313.19 1862.24,2227.5 1827.54,2141.07C1788.19,2043.05 1783.66,1933.08 1758.81,1830.93C1746.78,1781.49 1743.95,1715.74 1726.46,1692.42C1700.35,1690.34 1683.33,1701.39 1668.12,1717.86C1667.43,1705.58 1666.48,1693.32 1664.84,1681.1C1656.32,1617.63 1624.05,1555.57 1580.74,1509.71C1562.71,1490.62 1538.82,1484.18 1521,1463.94C1508.34,1449.56 1500.27,1433.08 1490.24,1416.96C1477.84,1397.04 1459.59,1382.33 1448.98,1361.42C1440.26,1344.22 1438.73,1326.45 1432.9,1308.4C1424.36,1281.93 1398.74,1224.56 1370.25,1215.88C1354.61,1211.11 1338.03,1219.4 1321.19,1225.85C1313.3,1212.41 1304.2,1200.06 1295.97,1190.49C1265.7,1155.31 1225.18,1129.73 1194.66,1093.51C1162.01,1054.78 1135.87,1010.46 1102.8,972.061C1091.48,958.911 1004.6,838.291 987.161,858.326C973.469,874.054 1035.71,931.044 1034.82,950.143C1008.86,935.144 978.189,843.766 950.004,858.153C944.202,879.089 971.351,901.517 972.507,924.173C908.789,899.171 893.1,813.364 815.639,816.493C828.362,855.784 857.9,898.706 884.976,930.649C926.931,980.149 959.308,1025.44 985.395,1085.25C1010,1141.66 1043.67,1191.81 1065.83,1248.59C1077.26,1277.88 1095.4,1299.8 1118.48,1321.53C1127.09,1329.64 1138.4,1341.84 1150.03,1352.8C1153.28,1366.45 1156.31,1380.17 1159.25,1393.91C1160.78,1402.17 1162.51,1410.39 1164.44,1418.56C1168.94,1440 1173.45,1461.45 1178.55,1482.74C1191.42,1536.45 1199.55,1639.58 1240.95,1678.55L1239.98,1673.51C1244.37,1685.45 1248.91,1697.02 1251.27,1707.28C1256.64,1730.66 1257.03,1753.88 1260.52,1777.22C1266.03,1814.13 1274.5,1851.99 1292.97,1884.17C1310.7,1915.06 1330.56,1951.42 1341.11,1984.65C1349.93,2012.45 1352.6,2083.24 1391.4,2087.62C1404.02,2044.12 1402.31,1995.3 1394.98,1946.21C1421.55,2006.67 1457.19,2062.64 1505.4,2106.75C1526.37,2125.95 1551.34,2148.27 1578.27,2165.72C1584.6,2205.46 1595.66,2245.21 1613.12,2285.45C1659.9,2393.23 1728.92,2514.46 1823.59,2586.77C1847.41,2604.97 1896.09,2645.99 1930.79,2641.04C1952.77,2637.91 1952.09,2630.06 1957.64,2608.37C1977.01,2532.72 1964.75,2467.93 1932.26,2397.73Z" style="fill:rgb(26,53,99);fill-rule:nonzero;"/>
        <path d="M1649.48,2000.66C1647.99,1993.23 1646.7,1985.75 1645.57,1978.23C1647.17,1985.69 1648.48,1993.17 1649.48,2000.66ZM2737.18,2812.38C2727.35,2777.69 2689.57,2762.3 2661.28,2744.7C2596.16,2704.17 2524.38,2674.88 2457.21,2638.65C2422.19,2619.75 2381.1,2616.79 2344.47,2601.86C2300.69,2584.02 2270.38,2554.24 2238.89,2519.97C2199.89,2477.51 2163.69,2440.1 2136.33,2388.86C2114.23,2347.48 2088.31,2320.17 2050.26,2292.54C1999.22,2255.49 1941.53,2202.03 1922.24,2139.54C1895.33,2052.34 1861.67,1966.87 1840.61,1877.32C1821.05,1794.17 1786.75,1725.47 1725.59,1664.32C1678.16,1616.9 1639.58,1567.21 1604.07,1510.37C1595,1495.86 1548.64,1406.37 1525.24,1450.32C1515.25,1469.07 1547.54,1509.28 1553.41,1525.58C1565.35,1558.76 1565.79,1594.25 1578.06,1626.82C1587.65,1652.24 1601.33,1675.9 1614.25,1699.86C1616.42,1709.04 1618,1718.34 1618.03,1727.89C1618.12,1749.07 1619.62,1761.7 1628.97,1780.46C1660.35,1843.37 1673.32,1907.11 1695.31,1973.79C1704,2000.12 1714.52,2026.81 1719.87,2054.02C1724.4,2077 1723.79,2101.05 1730.71,2123.33C1740.28,2154.17 1758.31,2175.49 1779.7,2194.57C1781.36,2206.16 1783.51,2217.6 1787.64,2228.44C1795.32,2248.64 1808.87,2266.56 1818.73,2285.73C1839.15,2325.46 1864.67,2360.84 1885.76,2400.07C1901.37,2429.11 1922.55,2487.35 1893.56,2516.25C1878.44,2531.31 1868.24,2516.66 1851.27,2502.18C1789.08,2449.11 1748.94,2362.55 1726.71,2285.16C1697.77,2184.38 1682,2081.52 1661.44,1978.97C1653.37,1938.72 1646.17,1895.88 1630.68,1857.07C1629.93,1852.87 1629.14,1848.68 1628.26,1844.51C1614.4,1778.7 1582.23,1712.68 1557.75,1650.14C1531.99,1584.32 1489.31,1520.76 1440.78,1469.56C1422.31,1450.08 1395.87,1433.95 1380.08,1412.29C1363.18,1389.1 1351.59,1361.09 1334.12,1337.64C1313.56,1310.02 1281.69,1215.77 1232.18,1238.13C1245.82,1286.33 1282.01,1329.97 1312.11,1369.37C1336.46,1401.24 1345.75,1421.63 1354.41,1460.71C1360.22,1486.88 1357.7,1518.44 1366.03,1542.95L1363.72,1496.71C1386.48,1549.56 1416.51,1598.4 1448.9,1646.63C1471.01,1679.55 1491.93,1713.2 1518.73,1742.49C1535.75,1761.1 1554.43,1779.66 1567.24,1801.74C1602.74,1862.95 1623.18,1939.57 1622.65,2009.94C1622.57,2020.65 1618.44,2042.72 1615.51,2066.21C1585.31,2040.13 1556.27,2015.34 1531.16,1981.61C1498.48,1937.7 1477.69,1886.41 1444.69,1842.28C1406.71,1791.49 1368.4,1729.7 1349.11,1668.84C1337.58,1632.47 1334.55,1597.66 1317.77,1562.57C1309.13,1544.5 1298.73,1527.59 1291.9,1508.71C1293.26,1558.88 1297.73,1609.76 1303.61,1659.85C1314.08,1748.96 1337.46,1832.5 1354.19,1920.34C1364.43,1974.08 1361.45,2023.72 1361.41,2077.61C1361.38,2124.64 1384.97,2163.46 1396.21,2208.72C1409.71,2263.05 1436.29,2318.5 1433.08,2374.89C1432.42,2386.47 1432.61,2401 1427.94,2411.77C1424.27,2420.24 1415.2,2425.19 1412.21,2430.69C1396.33,2459.93 1410.95,2510.77 1417.49,2544.92C1429.86,2609.58 1472.09,2673.5 1470.16,2739.77C1469.15,2774.84 1459.25,2806.64 1465.7,2842.26C1472.3,2878.7 1481.76,2917.84 1495.27,2952.23C1493.22,2949.82 1491.76,2947.08 1490.88,2943.99C1487.75,2982.95 1562.86,2977.1 1588.51,2985.91C1639.71,3003.48 1669.82,3063.55 1720.94,3086.69C1771.49,3109.57 1828.37,3115.81 1882.92,3103.35C1917.07,3095.55 1945.69,3075.59 1978.31,3063.71C2040.05,3041.24 2102.7,3029.46 2168.04,3033.54C2252.43,3038.8 2336.43,3038.72 2420.95,3038.78C2490.43,3038.83 2552.02,3031.59 2607.17,2982.9C2639.33,2954.51 2656.34,2917.4 2690.52,2890.68C2716.26,2870.55 2746.81,2846.34 2737.18,2812.38Z" style="fill:rgb(13,143,204);fill-rule:nonzero;"/>
        <path d="M804.971,811.957C800.359,800.428 795.358,789.335 788.045,780C786.587,786.396 794.774,799.017 804.971,811.957Z" style="fill:rgb(13,143,204);fill-rule:nonzero;"/>
        <path d="M837.549,850.137C833.069,844.235 817.501,827.855 804.971,811.957C811.511,828.301 817.268,845.521 827.719,859.858C843.046,880.887 855.467,896.603 866.174,921.232C876.564,945.13 897.615,984.634 928.762,983.14C932.369,955.309 904.362,930.972 887.632,911.981C869.973,891.936 853.865,871.633 837.549,850.137Z" style="fill:rgb(13,143,204);fill-rule:nonzero;"/>
        <path d="M984.561,840.111C1004.11,858.729 1023.29,871.515 1033.28,889.795C1044.24,909.857 1049.57,931.3 1063.36,949.728C1074.45,964.539 1086.58,974.294 1100.11,986.114C1115.12,999.219 1133.96,1035.11 1153.2,1036.47C1144.52,1007.61 1122.64,966.378 1102.47,944.172C1079.46,918.853 1020.92,838.512 984.561,840.111Z" style="fill:rgb(13,143,204);fill-rule:nonzero;"/>
        <path d="M1555.38,2933.59C1535.36,2940.71 1527.13,2923.64 1513.95,2910.82C1495.55,2892.95 1472.71,2881.05 1453.66,2864.12C1425.65,2839.24 1407.06,2804.69 1379.67,2779.04C1388.09,2803 1383.22,2825.28 1395.03,2849.28C1421.37,2902.81 1456.02,2961.29 1506.87,2994.84C1534.67,3013.19 1551.05,3029.12 1583.89,3018.17C1642.3,2998.69 1616.76,2920.97 1599.48,2876.29C1580.24,2887.34 1578.64,2925.31 1555.38,2933.59Z" style="fill:rgb(187,228,237);fill-rule:nonzero;"/>
        <path d="M1870.01,2990.76C1856.97,2986.51 1854.9,2997.08 1845.11,3003.82C1827.05,3016.25 1811.49,3019.13 1788.92,3017.17C1752.8,3014.02 1734.27,2994.41 1705.49,2974.88C1703.04,2976.65 1702.32,2979.18 1703.35,2982.5C1706.65,3039.14 1768.76,3118.24 1819.11,3119.03C1850.98,3119.52 1886.84,3103.98 1893.4,3069.71C1896.19,3055.08 1885.82,2995.91 1870.01,2990.76Z" style="fill:rgb(187,228,237);fill-rule:nonzero;"/>
        <path d="M2179.34,2518.85C2164.08,2511.18 2148.87,2505.89 2139.11,2516.62C2122.31,2535.09 2137.21,2577.39 2124.12,2587.15C2128.03,2632.96 2101.01,2678.74 2103.32,2725.76C2104.89,2757.8 2119.47,2807.88 2142.27,2831.55C2145.74,2781.25 2135.16,2726.01 2138.51,2677.32C2139.45,2663.57 2151.4,2619.58 2165.17,2611.9C2191.47,2597.22 2241.5,2620.97 2257.86,2639.74C2272.06,2656.05 2282.95,2689.94 2302.29,2702C2301.24,2665.93 2304.83,2632.48 2282.89,2601.42C2261.16,2570.64 2212.01,2535.27 2179.34,2518.85Z" style="fill:rgb(187,228,237);fill-rule:nonzero;"/>
        <path d="M1740.62,2505.59C1760,2563.5 1801.94,2600.94 1830.18,2653.1C1851.59,2692.64 1828.82,2713.78 1805.21,2741.58C1921.79,2751.03 1861.52,2598.32 1837.48,2534.97C1820.52,2490.27 1785.74,2456.92 1757.42,2419.53C1743.88,2401.66 1721.74,2314.34 1703.75,2314.52C1695.7,2346.07 1710.79,2371.8 1717.22,2402.19L1689.47,2369.83C1690.06,2414.86 1726.55,2463.56 1740.62,2505.59Z" style="fill:rgb(187,228,237);fill-rule:nonzero;"/>
        <path d="M1541.51,2247.29C1556.97,2295.19 1585.85,2343.58 1608.59,2388.23C1624.56,2419.57 1635.62,2459.68 1656.8,2487.64C1661.49,2433.12 1639.49,2379.28 1608.86,2335.59C1584.56,2300.93 1575.72,2246 1541.51,2247.29Z" style="fill:rgb(187,228,237);fill-rule:nonzero;"/>
        <path d="M1451.45,2008.66C1453.93,1930.67 1398.67,1865.02 1377.36,1798.77C1354.22,1827.63 1401.66,1898.61 1416.31,1925.36C1431.43,1952.95 1441.88,1978.83 1451.45,2008.66Z" style="fill:rgb(187,228,237);fill-rule:nonzero;"/>
        <path d="M2693.55,2810.09C2691.94,2779.43 2649.5,2754.7 2626.75,2740.83C2593.48,2720.52 2560.8,2690.25 2499.96,2697.97C2533.74,2725.19 2580.05,2747.16 2598.17,2787.18C2608.29,2809.5 2585.07,2818.9 2594.1,2839.08C2613.72,2882.89 2696.02,2856.93 2693.55,2810.09Z" style="fill:rgb(187,228,237);fill-rule:nonzero;"/>
        <path d="M2498.66,2698.12C2499.1,2698.06 2499.53,2698.03 2499.96,2697.97C2495.87,2694.67 2491.95,2691.3 2488.29,2687.8C2491.83,2691.16 2495.28,2694.6 2498.66,2698.12Z" style="fill:rgb(187,228,237);fill-rule:nonzero;"/>
        <path d="M1379.67,1398.8L1356.55,1364.12C1363.38,1380.62 1373.77,1395.59 1385.39,1409.86C1383.5,1406.14 1381.6,1402.44 1379.67,1398.8Z" style="fill:rgb(187,228,237);fill-rule:nonzero;"/>
        <path d="M1511.14,1595.01C1508.7,1584.24 1500.46,1582.55 1494.12,1574.39C1484.63,1562.19 1478.52,1546.42 1471.69,1532.62C1460.26,1509.54 1449.45,1486.45 1433.79,1466.17C1419.27,1447.36 1401.19,1429.26 1385.39,1409.86C1402.38,1443.41 1417.87,1479.85 1439.98,1509.8C1457.98,1534.17 1480.49,1589.25 1511.14,1595.01Z" style="fill:rgb(187,228,237);fill-rule:nonzero;"/>
        <path d="M1761.31,2023.35C1770.86,2002.24 1744.7,1957.15 1734.08,1938.1C1718.71,1910.53 1702.22,1883.17 1684.33,1857.18C1670.12,1836.53 1647.49,1769.61 1620.11,1766.4C1651.7,1813.72 1652.87,1842.13 1662.19,1865.61C1674.06,1895.5 1683.31,1922.77 1702.02,1950.03C1716.63,1971.32 1737.39,2014.74 1761.31,2023.35Z" style="fill:rgb(187,228,237);fill-rule:nonzero;"/>
        <path d="M2297.13,2760.79C2296.65,2761.1 2296.18,2761.38 2295.73,2761.65C2294.79,2762.8 2295.25,2763.97 2297.13,2760.79Z" style="fill:white;fill-rule:nonzero;"/>
        <path d="M2297.52,2760.55C2297.42,2760.57 2297.32,2760.6 2297.23,2760.63C2297.2,2760.68 2297.16,2760.74 2297.13,2760.79C2297.26,2760.71 2297.39,2760.63 2297.52,2760.55Z" style="fill:white;fill-rule:nonzero;"/>
        <path d="M2630.6,2844.51C2604.88,2841.12 2579.28,2804.01 2554.46,2809.34C2552.68,2828.85 2565.16,2847.39 2563.04,2868.9C2534.34,2874.18 2499.66,2825.67 2488.04,2804.62C2458.25,2750.7 2437.84,2678.7 2392.31,2635.7C2417.36,2650.1 2435.32,2651.85 2452.22,2658.94C2471.36,2666.96 2488.28,2680.87 2505.68,2692.23C2526.51,2705.83 2544.44,2723.22 2565.67,2736.16C2589.81,2750.89 2618.4,2759.61 2639.68,2779.02C2663.79,2801.01 2677.25,2850.66 2630.6,2844.51ZM2467.35,3005.73C2439.83,3022.91 2382.2,3007.52 2367.01,2981.97C2350.54,2954.27 2348.14,2901.86 2313.7,2890.02C2339,2897.32 2536.68,2962.46 2467.35,3005.73ZM2295.73,2761.65C2296.06,2761.24 2296.56,2760.84 2297.23,2760.63C2297.54,2760.1 2297.88,2759.46 2298.25,2758.69C2303.75,2747.53 2309.94,2732.83 2318.57,2723.89C2325.1,2717.13 2330.66,2708.61 2341.45,2709.6C2362.12,2711.49 2385.69,2768.34 2393.77,2785.37C2403.25,2805.36 2419.96,2847.08 2382.07,2829.15C2363.53,2820.38 2358.23,2797.83 2343.21,2786.1C2329.29,2775.22 2307.59,2773.04 2291.04,2769.34C2289.24,2764.74 2291.85,2763.89 2295.73,2761.65ZM2309.08,2607.96C2338.46,2605.95 2381.62,2637.61 2367.03,2670.34C2337.55,2667.64 2315.67,2613.55 2299.83,2612.58L2309.08,2607.96ZM1928.85,2946.85C1910.47,2938.12 1863.36,2925.19 1862.13,2900.91C1861.49,2888.36 1870.13,2876.71 1881.37,2878.46C1875.09,2851.06 1917.42,2879.35 1928.58,2891.29C1951.08,2915.35 1989.43,2972.75 1989.65,3004.94C1967.46,2982.33 1958.79,2961.07 1928.85,2946.85ZM1841.89,3077.25C1781.22,3055.63 1744.97,3010.86 1714.89,2954.72C1702.57,2931.73 1693.6,2907.2 1680.29,2884.73C1670.04,2867.42 1651.12,2847.35 1645.85,2827.6C1639.34,2803.21 1658.65,2762.23 1687.24,2762.75C1682.2,2762.28 1682.31,2760.23 1682.8,2758.2C1733.67,2786.61 1765.27,2819.15 1790.93,2873.08C1816.3,2926.37 1889.43,3022.37 1841.89,3077.25ZM1567.3,2629.14C1573.62,2626.98 1574.47,2630.89 1578.5,2635.7C1610.66,2635.71 1675.05,2708.42 1640.98,2747.23C1603.72,2789.68 1564.91,2652.66 1567.3,2629.14ZM1552.83,3083.05C1540.5,3088.59 1528.4,3094.62 1516.27,3099.02C1497.05,3106.01 1474.05,3107.98 1454.04,3109.14C1412.18,3111.56 1372.87,3098.48 1330.89,3098.09C1321.07,3098 1302.56,3100.82 1295.35,3091.94C1284.29,3078.31 1298.68,3061.59 1301.06,3065.73C1344.41,3078.91 1393.17,3080.39 1438.1,3084.22C1471.54,3087.07 1514.16,3088.73 1552.83,3083.05C1569.84,3075.41 1587.26,3068.7 1605.69,3068.51C1590.1,3075.65 1571.94,3080.24 1552.83,3083.05ZM1307.43,2376.72C1326.35,2300.93 1385.49,2397.69 1405.1,2420.69C1416.47,2424.43 1408.72,2477.35 1418.85,2501.09C1429.88,2526.92 1449.95,2549.19 1463.48,2573.7C1482,2607.26 1494.19,2644.12 1510.3,2678.71C1539.02,2740.34 1568.63,2803.98 1583.17,2870.84C1589.04,2897.83 1592.26,2985.15 1543.3,2968.22C1526.86,2962.54 1515.11,2943.27 1503.53,2931.68C1480.13,2908.26 1455.86,2886.09 1435.61,2859.37C1394.98,2805.72 1378.42,2742.06 1358.99,2679.13C1331.12,2588.86 1283.43,2472.89 1307.43,2376.72ZM1107.92,1240.63C1091.17,1268.13 1070.99,1230.08 1062.88,1213.85C1040.16,1168.39 1017.5,1118.92 989.012,1076.81C979.951,1063.42 935.361,995.69 976.234,998.732C1009.84,1001.23 1020.09,1052.74 1038.17,1078.77C1041.33,1099.02 1057.75,1106.72 1071.67,1121.27C1088.43,1138.78 1094.81,1168.81 1101.97,1191.68C1105.72,1203.66 1115.15,1228.77 1107.92,1240.63ZM1577.06,1602.88C1557.82,1596.8 1542.64,1575.27 1530.5,1560.79C1477.91,1498.09 1461.13,1406.09 1423.95,1334.16C1410.03,1307.23 1391.33,1284.17 1376.68,1258.29C1366.68,1240.61 1357.15,1227.84 1377.25,1211.56C1380.54,1208.9 1395.18,1207.31 1399.68,1204.6C1404.73,1219.62 1435.72,1214.38 1451.05,1232.18C1473.01,1257.66 1477.64,1303.53 1487.54,1334.31C1501.5,1377.73 1522.82,1422.5 1542.84,1463.41C1559.21,1496.84 1589.21,1526.84 1603.35,1560.57C1613.55,1584.9 1608.33,1612.77 1577.06,1602.88ZM3210.56,2907.35C3200.47,2866.19 3177.42,2861.71 3140.97,2864.7C3134.45,2865.24 3124.49,2862.43 3118.4,2865.42C3106.28,2871.38 3104.1,2886.73 3092.33,2893.2C3018.71,2853.72 3146.3,2704.74 3052.78,2657.94C3025.62,2644.35 2979.89,2652.35 2953.23,2664.18C2932.55,2673.36 2909.41,2701.32 2889.35,2701.44C2868.67,2701.56 2849.7,2682.86 2828.16,2681.86C2780,2679.62 2772.54,2716.29 2739.93,2735.85C2730.25,2741.66 2723.85,2746.42 2718.38,2735.49C2665.01,2734.25 2610.21,2699.2 2564.36,2675.57C2502.88,2643.89 2444.86,2607.28 2385.88,2571.36C2331.81,2538.44 2254.22,2500.3 2222.53,2443.53C2203.94,2410.24 2196.76,2370.75 2180.71,2336.16C2162.87,2297.71 2141.3,2260.84 2120.66,2223.84C2106.81,2199.02 2094.52,2162.25 2063.78,2156.33C2042.56,2152.24 2022.21,2162.67 2003.53,2169.84C1990.35,2174.9 1995.79,2181.43 1982.85,2178.02C1973.81,2175.63 1963.74,2148.97 1958.94,2141.41C1936.68,2106.34 1916.34,2070.13 1892.78,2035.95C1889.37,2009.48 1882.2,1983.84 1878.73,1956.99C1873.96,1920.12 1872.19,1882.23 1869.07,1845.26C1862.42,1766.58 1848.3,1690.01 1827.27,1613.91C1818.81,1583.29 1808.85,1553.35 1798.75,1523.32C1789.92,1497.07 1788.28,1465.55 1768.84,1443.91C1747.75,1420.43 1718.1,1413.54 1723.75,1375.09C1726.39,1357.14 1735.62,1346.89 1718.94,1331.59C1704.4,1318.24 1678.08,1315.7 1660.16,1320.15C1621.48,1329.76 1579.9,1371.58 1595.85,1414.84C1602.25,1432.17 1621.71,1443.01 1623.46,1463.48C1626.72,1501.67 1592.2,1489.06 1575.65,1467.39C1557.93,1444.19 1557.21,1419.23 1554.57,1390.94C1550.21,1344.24 1538.55,1310.07 1517.32,1268.14C1481.38,1197.14 1446.69,1118.69 1372.98,1080.81C1297.27,1041.89 1318.95,1126.19 1318.78,1176.9C1279.86,1169.49 1262.53,1131.74 1236.04,1108.01C1210.21,1084.87 1184.77,1060.8 1164.73,1032.17C1142.03,999.734 1124.16,990.69 1069.07,957.218C1075.48,1001.92 1138.01,1046.24 1163.87,1080.22C1187.14,1110.81 1211.34,1138.84 1237.67,1166.86C1270.33,1201.63 1307.69,1230.84 1337.88,1267.58C1365.9,1301.68 1387.99,1340.85 1408.87,1379.78C1441.19,1440.03 1462.79,1507.66 1498.7,1565.67C1515.73,1593.19 1522.84,1597.36 1547.71,1608.79C1564.01,1616.29 1589.87,1627.08 1603.22,1639.13C1621.1,1655.26 1624.21,1681.7 1633.88,1702.48C1654.72,1747.23 1688.12,1788.97 1714.65,1830.63C1732,1857.85 1756,1883.86 1760.39,1916.17C1762.82,1934.12 1758.99,1953.08 1760.35,1971.19C1760.68,1975.66 1761.38,1979.86 1762.39,1983.82C1734.48,1953.02 1704.69,1896.44 1696.04,1883C1706.77,1921.79 1708.21,1962.37 1733.23,1995.74C1755.88,2025.94 1788.59,2047.36 1815.34,2073.61C1842.66,2100.42 1869.56,2130.9 1895.07,2159.45C1909.36,2175.44 1921.07,2189.89 1914.65,2212.77C1898.86,2218.18 1875.61,2208.75 1857.11,2211.85C1876.35,2262.77 1949.51,2239.99 1987.71,2266.99C2005.21,2279.35 2017.69,2315.03 2026.88,2333.62C2044.32,2368.87 2054.42,2405.47 2069.47,2441.47C2102.83,2521.23 2110.92,2594.43 2105.64,2680.29C2127.12,2670.38 2147.59,2657.47 2154.54,2633.09C2161.75,2607.83 2148.4,2568.85 2165.77,2549.53C2191.86,2580.55 2226.52,2611.12 2258.88,2635.22C2277.33,2648.96 2284.11,2648.8 2278.73,2671.82C2272.78,2697.29 2254.54,2740.35 2233.08,2753.2C2214.95,2764.05 2205.46,2754.06 2202.49,2778.51C2199.63,2802.06 2217.12,2824.13 2213.92,2848.67C2203.96,2838.09 2190.38,2828.62 2177.29,2820.7C2165.76,2813.72 2153.44,2808.74 2142.67,2800.36C2131.35,2791.54 2118.87,2767.48 2105.69,2763.8C2047.67,2747.62 2125.09,2871.58 2121.79,2894.36C2119.75,2858.03 2065.72,2837.55 2040.78,2819.59C2008.06,2796.02 2017.87,2752.05 2013.25,2716.63C2007.5,2672.56 1992.84,2625.9 1976.51,2584.69C1970.26,2617.21 1991.5,2757.01 1925.24,2717.68C1876.92,2689 1870.06,2630.1 1853.77,2582.19C1842.52,2549.09 1828.33,2518.28 1814.48,2486.22C1805.06,2464.38 1795.18,2429.57 1772.47,2417.91C1776.66,2437.97 1792.04,2456.92 1797.67,2477.59C1810.09,2523.17 1807.78,2572.5 1819.03,2618.92C1823.96,2639.29 1827.06,2654.84 1839.44,2671.71C1841.24,2674.17 1850.15,2677.41 1850.26,2677.6C1853.47,2683.69 1856.9,2699.78 1853.67,2707.54C1845.78,2726.47 1814.46,2737.15 1794.87,2742.11C1766.8,2749.22 1764.09,2751.69 1746.92,2729.05C1707.98,2677.72 1659.07,2636.02 1621.8,2582.02C1578.73,2519.6 1540.04,2451.11 1504.63,2384.37C1475.19,2328.87 1456.93,2254.83 1417.34,2205.33C1416.78,2204.63 1416.21,2203.96 1415.64,2203.31C1414.37,2198.22 1413.13,2193.18 1412.05,2188.21C1405.3,2157.37 1398.64,2121.03 1387.48,2091.48C1364.64,2031.04 1326.72,1976.24 1308.51,1913.34C1291.68,1855.17 1301.81,1790.42 1281.53,1733.49C1279.98,1729.13 1278.28,1724.82 1276.52,1720.56C1275.16,1695.73 1270.08,1670.25 1265.41,1648.03C1251.93,1583.92 1235.58,1517.36 1213.66,1455.55C1198.94,1414.06 1182.9,1373.72 1161.72,1335.3C1146.96,1308.51 1136.51,1279.84 1139.58,1248.76C1160.47,1255.38 1172.63,1303.73 1188.79,1321.42C1214.82,1349.92 1236.92,1379.48 1260.02,1410.48C1306.23,1472.51 1353.79,1529.4 1383.33,1602.36C1395.66,1632.82 1403.73,1667.9 1420.99,1695.6C1439.36,1725.08 1462.32,1752.16 1481.33,1781.39C1506.33,1819.84 1513,1888.9 1545.7,1918.93C1547.97,1873.53 1503.92,1819.66 1486.49,1778.56C1468.42,1735.93 1453.03,1694.07 1430.06,1653.76C1405.25,1610.24 1379.58,1566.76 1361.81,1519.84C1344.92,1475.24 1317,1441.03 1287.35,1404.08C1258.71,1368.4 1227.03,1335.82 1201.44,1298.26C1178.22,1264.17 1150.41,1229.18 1131.4,1192.13C1119.34,1168.63 1087.63,1084.65 1052.68,1068.64C1041.41,1047.24 1016.75,1024.43 1006.29,1008.96C989.768,984.513 971.494,931.685 942.554,925.393C941.737,941.276 944.692,955.045 952.091,968.943C939.699,977.66 925.454,967.499 919.328,955.288C918.629,958.393 918.485,961.137 918.784,963.655C941.436,993.451 951.71,1040.31 963.914,1070.47C978.334,1106.11 1001.22,1137.28 1015.6,1173.23C1041.93,1239.08 1062.14,1306.01 1081.77,1373.19C1088.47,1396.12 1102.5,1414.79 1114.86,1434.43C1131.33,1460.6 1142.33,1490.44 1155.19,1518.83C1162.95,1544.54 1170.42,1570.47 1178.93,1595.76C1206.24,1676.88 1234.46,1758.92 1265.99,1838.28C1293.96,1908.67 1309.11,1983.51 1328.81,2056.51C1341.82,2104.75 1362.96,2157.19 1365.81,2208.44C1358.91,2220.28 1362.2,2231.21 1362.97,2246.77C1365.01,2287.69 1345.23,2299.08 1307.49,2279.65C1283.96,2267.54 1282.87,2252.88 1265.68,2275.71C1253.46,2291.96 1243.53,2322.99 1241.13,2343.09C1233.85,2403.96 1261.09,2444.54 1275.69,2499.95C1286.1,2539.41 1293.46,2582.85 1291.47,2623.78C1248.98,2604.35 1253.66,2688.44 1233.68,2709.5C1217.58,2726.47 1195.19,2731.78 1179.91,2749.84C1162.27,2770.7 1160.29,2803.52 1168.02,2829.42C1177.91,2862.58 1206.87,2897.09 1171.77,2927.01C1152.63,2943.32 1071.44,2946.17 1094.1,2984.81C1104.79,3003.04 1144.32,3009.27 1161.82,3018.22C1190.21,3032.74 1218.54,3058.94 1252.51,3056.48C1243.91,3081.24 1200.74,3061.73 1174.74,3067.65C1152.55,3072.71 1136.54,3080.76 1149.88,3103.1C1164.15,3126.99 1217.23,3120.59 1239.18,3121.8C1318.41,3126.18 1396.92,3127.99 1476.36,3128.14C1488.05,3128.16 1554.17,3116.74 1558.16,3137.29C1562.46,3159.47 1502.4,3153.66 1515.84,3186.51C1531.12,3223.89 1610.78,3221.65 1640.28,3218.27C1701.51,3211.26 1761.03,3192.36 1822.95,3192.48C1896.51,3192.62 1968.09,3213.22 2041.99,3213.9C2134.49,3214.75 2243,3226.7 2323.72,3173.41C2333.87,3166.71 2375.83,3142.48 2383.17,3128.67C2387.23,3121.06 2383.92,3109.39 2387.33,3103.58C2407.55,3069.12 2512.23,3081.93 2547.92,3078.75C2602.76,3073.88 2664.88,3053.79 2720.53,3058.36C2751.86,3060.93 2782.93,3075.38 2785.96,3109.71C2790.02,3155.71 2733.06,3171.45 2696.81,3174.02C2643.05,3177.83 2590.23,3173.93 2537.42,3167.05C2500.03,3162.18 2460.36,3169.51 2422.91,3171.31C2392.86,3172.74 2362.19,3174.46 2335.52,3190.13C2422.25,3199.11 2511.02,3183.66 2598.14,3189C2677.26,3193.84 2771.76,3216.45 2848.65,3187.48C2896.86,3169.32 2936.79,3133.83 2901.17,3085.77C2871.26,3045.4 2806.19,3046.22 2762.51,3032.63C2800.06,3022.88 2845.57,3025.43 2884.83,3022.96C2948.83,3018.92 3010.88,3013.6 3072.97,2996.38C3117.46,2984.04 3226.42,2972.06 3210.56,2907.35Z" style="fill:white;fill-rule:nonzero;"/>
        <path d="M896.472,943.347L924.215,975.714C921.306,971.952 919.322,968.172 918.784,963.655C912.427,955.292 905.095,948.273 896.472,943.347Z" style="fill:white;fill-rule:nonzero;"/>
        <path d="M1303.38,1632.31C1296.22,1617.88 1299.4,1601.66 1296.09,1586.33C1293.02,1572.12 1286.12,1559.92 1283.62,1545.6C1279.89,1524.14 1279.89,1506.69 1268.82,1486.67C1264.08,1478.11 1244.04,1458.1 1252.59,1446.3C1264.93,1429.25 1285.33,1469 1289.56,1477.8C1303.76,1507.4 1307.09,1541.39 1317.78,1572.27C1332.47,1614.66 1346.37,1657.44 1361.25,1699.79C1373.09,1733.49 1382.17,1766.63 1398.11,1798.53C1416.34,1835 1428.02,1866.83 1428.22,1907.43" style="fill:rgb(187,228,237);fill-rule:nonzero;"/>
        <path d="M1972.3,2391.4C2016.68,2385.13 2051.28,2507.22 2049.13,2542.01C2026.29,2549.11 2019.73,2486.02 2010.08,2471.83C1996.14,2451.33 1965.49,2428.72 1972.3,2391.4Z" style="fill:rgb(187,228,237);fill-rule:nonzero;"/>
        <path d="M2043.2,2696.58C2044.45,2691.25 2044.92,2685.78 2044.85,2680.35C2041.34,2690.48 2028.46,2744.31 2053.16,2741.31C2073.69,2738.81 2050.72,2689.73 2046.29,2684.25" style="fill:rgb(187,228,237);fill-rule:nonzero;"/>
        <path d="M1998.51,2069.27C1985.61,2084.97 2010.09,2120.2 2032.07,2121.66C2041.29,2100.65 2030.05,2094.38 2021.47,2076.9C2014.74,2063.19 2013,2047.3 2009.03,2032.49C1995.85,2036.47 1995.2,2076.39 1998.51,2069.27Z" style="fill:rgb(187,228,237);fill-rule:nonzero;"/>
        <path d="M1257.14,2029.2C1246.74,2038.82 1236.92,2066.92 1241.9,2081.12C1245.22,2090.6 1254.54,2098.58 1263.44,2090.72C1282.21,2074.14 1245.72,2036.7 1257.14,2029.2Z" style="fill:rgb(187,228,237);fill-rule:nonzero;"/>
        <path d="M1586.98,1233.88C1557.91,1213.22 1542.85,1138.45 1585.48,1123.6C1612.05,1114.34 1605.51,1130.4 1602.7,1145.99C1595.97,1183.32 1625.66,1208.61 1623.74,1246C1613.63,1242.37 1618.05,1219.05 1605.44,1215.31C1591.47,1211.17 1598.91,1234.85 1600.83,1243.25C1602.13,1248.94 1610.85,1289.19 1596.57,1273.72C1593.03,1269.88 1594.08,1257.34 1593.14,1252.38C1591.55,1243.96 1588.55,1236.19 1586.98,1233.88Z" style="fill:rgb(187,228,237);fill-rule:nonzero;"/>
    </g>
</svg>
